
        <svg xmlns="http://www.w3.org/2000/svg" xmlns:xlink="http://www.w3.org/1999/xlink" version="1.1" width="3193.548387096774" height="1879.3903389264296" viewBox="0 0 3193.548387096774 1879.3903389264296">
			
			<g transform="scale(9.67741935483871) translate(10, 10)">
				<defs id="SvgjsDefs4319"/><g id="SvgjsG4320" featureKey="symbolFeature-0" transform="matrix(1.2292143263219713,0,0,1.2292143263219713,93.95817687506995,-7.461329413377791)" fill="#fff"><g xmlns="http://www.w3.org/2000/svg"><path d="M13.864,46.239c0,0,11.493-21.788,36.151-21.788c24.657,0,36.121,21.788,36.121,21.788s-19.687-10.021-25.058-2.313   c-0.461,0.667,11.44,15.364,7.674,49.954c-1.773-13.876-15.939-35.329-18.753-35.329c-2.812,0-16.979,21.469-18.751,35.38   c-3.792-34.763,8.753-46.926,7.229-50.027C35.399,37.656,13.864,46.239,13.864,46.239z"/></g><g xmlns="http://www.w3.org/2000/svg"><path d="M59.174,14.865c0,4.857-3.936,8.797-8.876,8.797c-4.856,0-8.795-3.94-8.795-8.797c0-4.854,3.938-8.795,8.795-8.795   C55.238,6.07,59.174,10.011,59.174,14.865z"/></g></g><g id="SvgjsG4321" featureKey="nameFeature-0" transform="matrix(1.503364747410294,0,0,1.503364747410294,-2.418746801416153,113.10692593855774)" fill="#fff"><path d="M2 40 c-0.32 0 -0.56 -1.32 -0.24 -1.36 c2.04 -0.28 3.32 -1.08 3.32 -3.6 l0 -18.08 c0 -2.52 -1.28 -3.32 -3.32 -3.6 c-0.32 -0.04 -0.08 -1.36 0.24 -1.36 l10.96 0 c0.32 0 0.56 1.32 0.24 1.36 c-1.72 0.24 -3.32 0.8 -3.32 3.6 l0 18.08 c0 2.8 1.6 3.36 3.32 3.6 c0.32 0.04 0.08 1.36 -0.24 1.36 l-10.96 0 z M17.517 40 c-0.32 0 -0.6 -1.16 -0.28 -1.2 c1.2 -0.16 2.76 -0.72 2.76 -3.04 l0 -9.6 c0 -1.92 -1.04 -2.36 -2.72 -2.56 c-0.32 -0.04 -0.16 -1.08 0.16 -1.16 l6.32 -1.76 c0.48 -0.12 0.68 0.2 0.68 0.6 c0 1.12 0.32 1.52 0.96 1.28 c1.96 -0.72 3.84 -1.88 6.24 -1.88 c3.92 0 5.28 3 5.28 5.6 l0 9.48 c0 2.32 1.56 2.88 2.76 3.04 c0.32 0.04 0.04 1.2 -0.24 1.2 l-8.92 0 c-0.28 0 -0.48 -1.16 -0.24 -1.2 c1.52 -0.24 2.36 -0.92 2.36 -3.04 l0 -7.68 c0 -3.36 -1.64 -4.12 -4.2 -4.12 c-1.72 0 -4.16 0.48 -4.16 1.52 l0 10.28 c0 2.12 1.08 2.84 2.56 3.04 c0.28 0.04 0.04 1.2 -0.28 1.2 l-9.04 0 z M50.194 40.64 c-3.24 0 -6.64 -1.32 -6.2 -2.52 l0.64 -1.68 c0.92 -2.44 2.56 1.76 7.04 1.76 c3.88 0 4.4 -2.56 1.32 -4.12 l-5.24 -2.64 c-6.12 -3.08 -4.08 -10.76 3.76 -10.76 c2.96 0 6 1.2 5.52 2.36 l-0.68 1.68 c-0.96 2.4 -2.48 -1.56 -6.44 -1.56 c-3.04 0 -3.6 2.56 -0.8 3.96 l5.44 2.76 c6.4 3.24 4.24 10.76 -4.36 10.76 z M68.071 40.64 c-2.76 0 -5.48 -1.64 -5.48 -4.88 c0 -2.16 1.28 -3.32 4.16 -4.24 l5.84 -1.88 c1.2 -0.4 1.56 -0.44 1.56 -1.44 l0 -1.6 c0 -2.48 -1.24 -2.76 -2.8 -2.76 c-2.12 0 -4.64 0.56 -6.12 0.72 c-0.36 0.04 -0.6 -0.16 -0.64 -0.44 l-0.08 -0.72 c-0.12 -1.04 5.96 -2.72 9 -2.72 c4.64 0 4.96 3.68 4.96 6.52 l0 8.44 c0 3.36 2.88 2 3.44 2.36 c0.2 0.12 0.28 0.4 0.28 0.56 c0 0.84 -3.4 2.08 -5.08 2.08 c-1.28 0 -2.08 -0.72 -3.04 -2.76 c-3.8 2.32 -4.64 2.76 -6 2.76 z M69.991 37.68 c2.04 0 4.2 -1.44 4.2 -3.48 l0 -3.12 c-0.24 0.16 -0.2 0.2 -0.96 0.44 l-4.04 1.36 c-1.28 0.44 -1.92 1.12 -1.92 2.32 c0 1.52 1.04 2.48 2.72 2.48 z M85.348 40 c-0.32 0 -0.6 -1.16 -0.28 -1.2 c1.2 -0.16 2.76 -0.72 2.76 -3.04 l0 -9.6 c0 -1.92 -1.04 -2.36 -2.72 -2.56 c-0.32 -0.04 -0.16 -1.08 0.16 -1.16 l6.32 -1.76 c0.48 -0.12 0.68 0.2 0.68 0.6 c0 1.12 0.32 1.52 0.96 1.28 c1.96 -0.72 3.84 -1.88 6.24 -1.88 c3.92 0 5.28 3 5.28 5.6 l0 9.48 c0 2.32 1.56 2.88 2.76 3.04 c0.32 0.04 0.04 1.2 -0.24 1.2 l-8.92 0 c-0.28 0 -0.48 -1.16 -0.24 -1.2 c1.52 -0.24 2.36 -0.92 2.36 -3.04 l0 -7.68 c0 -3.36 -1.64 -4.12 -4.2 -4.12 c-1.72 0 -4.16 0.48 -4.16 1.52 l0 10.28 c0 2.12 1.08 2.84 2.56 3.04 c0.28 0.04 0.04 1.2 -0.28 1.2 l-9.04 0 z M111.185 40.08 c-0.4 0.04 -0.56 -1.36 -0.24 -1.44 c2.32 -0.6 4.12 -0.96 4.12 -3.92 l0 -17.76 c0 -2.56 -1.64 -3.24 -3.36 -3.68 c-0.32 -0.08 -0.12 -1.4 0.2 -1.36 c2.92 0.32 7.96 0.24 10.4 0.24 c3.64 0 6.28 -0.16 9.56 -0.24 c0.96 0 0.96 0.64 0.76 1.56 l-0.96 3.8 c-0.12 0.56 -1.12 0.56 -1.28 0 c-0.6 -1.96 -1.8 -3.08 -6.8 -3.08 c-2.8 0 -3.72 0.72 -3.72 2.8 l0 6.92 c0 1.04 0.52 1.24 1.32 1.24 l0.88 0 c3.24 0 6.04 -0.32 7.68 -1.8 c0.4 -0.36 1.28 -0.28 0.92 0.52 l-2.28 5.04 c-0.32 0.72 -0.92 0.64 -1.36 0.04 c-0.92 -1.28 -2.96 -1.8 -5.28 -1.8 l-0.56 0 c-0.8 0 -1.32 0.2 -1.32 1.24 l0 6.32 c0 2.96 1.84 3.2 5.12 3.92 c0.36 0.08 0.16 1.48 -0.24 1.44 c-2.88 -0.2 -4.96 -0.24 -7.28 -0.24 s-4.4 0.04 -6.28 0.24 z M146.982 40.64 c-5.56 0 -9.72 -4 -9.72 -9.8 c0 -5.64 4 -10.16 9.88 -10.16 c5.56 0 9.72 4 9.72 9.8 c0 5.64 -3.96 10.16 -9.88 10.16 z M148.142 38.24 c1.96 0 4.36 -1.2 4.36 -5.8 c0 -5.24 -2.84 -9.36 -6.56 -9.36 c-1.92 0 -4.32 1.2 -4.32 5.76 c0 5.28 2.84 9.4 6.52 9.4 z M161.21899999999997 40 c-0.32 0 -0.6 -1.16 -0.28 -1.2 c1.2 -0.16 2.72 -0.72 2.72 -3.04 l0 -17.6 c0 -4.4 -0.6 -5.24 -3.08 -5.52 c-0.32 -0.04 -0.2 -1.08 0.08 -1.12 l7.44 -1.6 c0.36 -0.08 0.68 0.2 0.56 0.72 c-0.28 1.28 -0.72 3.84 -0.72 9.12 l0 16 c0 2.32 1.52 2.88 2.76 3.04 c0.28 0.04 0.04 1.2 -0.28 1.2 l-9.2 0 z M178.93599999999998 16.92 c-0.88 0 -3.04 -1.88 -3.04 -3.04 s2.16 -3.04 3.04 -3.04 s3.04 1.88 3.04 3.04 s-2.16 3.04 -3.04 3.04 z M174.57599999999996 40 c-0.32 0 -0.6 -1.16 -0.28 -1.2 c1.24 -0.16 2.8 -0.72 2.8 -3.04 l0 -8.84 c0 -2.44 -0.64 -3.04 -2.72 -3.32 c-0.32 -0.04 -0.2 -1.08 0.08 -1.16 l7.08 -1.68 c0.4 -0.08 0.6 0.2 0.48 0.72 c-0.28 1.28 -0.64 3.64 -0.64 6.24 l0 8.04 c0 2.32 1.56 2.88 2.8 3.04 c0.28 0.04 0.04 1.2 -0.28 1.2 l-9.32 0 z M197.933 40.64 c-5.56 0 -9.72 -4 -9.72 -9.8 c0 -5.64 4 -10.16 9.88 -10.16 c5.56 0 9.72 4 9.72 9.8 c0 5.64 -3.96 10.16 -9.88 10.16 z M199.093 38.24 c1.96 0 4.36 -1.2 4.36 -5.8 c0 -5.24 -2.84 -9.36 -6.56 -9.36 c-1.92 0 -4.32 1.2 -4.32 5.76 c0 5.28 2.84 9.4 6.52 9.4 z"/></g>
			</g>
		</svg>
	