
        <svg xmlns="http://www.w3.org/2000/svg" xmlns:xlink="http://www.w3.org/1999/xlink" version="1.1" width="3143.820224719101" height="3143.820224719101" viewBox="0 0 3143.820224719101 3143.820224719101">
			
			<g transform="scale(7.191011235955055) translate(10, 10)">
				<defs id="SvgjsDefs1327"/><g id="SvgjsG1328" featureKey="rootContainer" transform="matrix(2.0806526878902254,0,0,2.0806526878902254,0,0)" fill="#fff"><path xmlns="http://www.w3.org/2000/svg" d="M100.254 0C44.974 0 0 44.974 0 100.254s44.974 100.254 100.254 100.254c55.28 0 100.254-44.974 100.254-100.254S155.534 0 100.254 0zm0 195.508C47.731 195.508 5 152.777 5 100.254S47.731 5 100.254 5s95.254 42.73 95.254 95.254-42.731 95.254-95.254 95.254z"/></g><g id="SvgjsG1329" featureKey="symbolFeature-0" transform="matrix(0.10863758529810383,0,0,0.10863758529810383,180.9640325994106,68.9027603470472)" fill="#fff"><title xmlns="http://www.w3.org/2000/svg">dgital design 2</title><path xmlns="http://www.w3.org/2000/svg" d="M382.3,115.7c0.8-1.8,0.7-3.9-0.3-5.6l-59.3-97.1c-1.1-1.8-3-2.9-5.1-2.9s-4,1.1-5.1,2.9L253.2,110c-1,1.7-1.2,3.8-0.3,5.6  l30.4,65.8v17.1c-3.1,0.2-5.6,2.8-5.6,6v34.2c0,3.3,2.7,6,6,6h26.8v44.2c0,13.3-10.8,24.1-24.1,24.1h-0.2c-6.4,0-12.5-2.5-17-7.1  s-7.1-10.6-7.1-17v-1.4c0-19.9-16.2-36.1-36.1-36.1c-19.8,0-36,16.1-36.1,35.9l-0.1,27h-10.6c-13.4,0-26,5.3-35.4,14.7  c-9.5,9.5-14.6,22.1-14.6,35.5V452c0,27.6,22.5,50,50.1,50c0,0,0.1,0,0.1,0H212c27.6,0,50.1-22.6,50-50.2v-87.4  c0-27.6-22.5-50-50.1-50c0,0-0.1,0-0.1,0h-10.1l0.1-27c0.1-13.2,10.9-24,24.1-24c13.3,0,24.1,10.8,24.1,24.1v1.4  c0,9.6,3.8,18.7,10.6,25.5c6.8,6.8,15.9,10.6,25.5,10.6h0.2c19.9,0,36.1-16.2,36.1-36.1v-44.2h29.2c3.3,0,6-2.7,6-6v-34.2  c0-3.2-2.5-5.8-5.6-6v-17.1L382.3,115.7z M152.2,337.6c7.2-7.2,16.8-11.2,26.9-11.2h10.5v46.5h-48.6v-8.4  C141.1,354.4,145.1,344.8,152.2,337.6z M212,490h-32.7c0,0,0,0-0.1,0c-21,0-38.1-17.1-38.1-38.1v-67H250v66.9  C250,472.8,233,490,212,490z M211.8,326.4C211.9,326.4,211.9,326.4,211.8,326.4c10.2,0,19.8,4,27,11.1c7.2,7.2,11.2,16.8,11.2,26.9  v8.5h-48.3v-46.5H211.8z M295.3,198.6v-12.4H340v12.4H295.3z M317.6,103.9c6.6,0,12,5.4,12,12s-5.4,12-12,12s-12-5.4-12-12  S311,103.9,317.6,103.9z M311.6,37.4v55.3c-10.4,2.7-18,12.1-18,23.3c0,13.3,10.8,24,24,24s24-10.8,24-24c0-11.2-7.7-20.6-18-23.3  V37.4l46.5,76.2l-28,60.6h-49l-28-60.6L311.6,37.4z M345.6,232.7h-56v-22.2h56V232.7z"/></g><g id="SvgjsG1330" featureKey="nameFeature-0" transform="matrix(5.602611169023782,0,0,5.602611169023782,128.276875012501,84.80256353866946)" fill="#fff"><path d="M14.44 33.6 q-0.28 1.2 -0.74 2.44 t-1.22 2.28 t-1.8 1.7 t-2.48 0.66 q-1.32 0 -2.4 -0.7 t-1.9 -1.94 t-1.38 -2.88 t-0.88 -3.56 q-0.2 -1.32 -0.32 -2.74 t-0.12 -2.82 t0.12 -2.8 t0.32 -2.72 q0.32 -1.92 0.88 -3.62 t1.4 -2.94 t1.92 -1.96 t2.44 -0.72 q1.44 0 2.48 0.66 t1.8 1.7 t1.22 2.28 t0.74 2.44 l-3.68 0.84 q-0.08 -0.4 -0.3 -1.1 t-0.54 -1.36 t-0.76 -1.16 t-0.96 -0.5 t-0.96 0.48 t-0.8 1.28 t-0.64 1.92 t-0.48 2.36 q-0.2 1.2 -0.3 2.44 t-0.1 2.52 q0 2.6 0.36 4.92 q0.2 1.24 0.48 2.32 t0.64 1.86 t0.8 1.24 t0.92 0.46 q0.56 0 1 -0.5 t0.76 -1.16 t0.52 -1.36 t0.28 -1.1 z M21.575 23.4 l4.16 0 l0 3.8 l-4.16 0 l0 12.8 l-3.76 0 l0 -28 l9.88 0 l0 3.8 l-6.12 0 l0 7.6 z"/></g><g id="SvgjsG1331" featureKey="sloganFeature-0" transform="matrix(1.3281573682261258,0,0,1.3281573682261258,157.99257363703103,315.0510843707224)" fill="#fff"><path d="M8.32 15.719999999999999 c0.2 0.12 0.22 0.26 0.12 0.48 c-0.02 0.02 -0.02 0.04 -0.02 0.06 c-0.62 0.84 -1.2 1.74 -1.98 2.44 c-1.2 1.08 -2.6 1.2 -4.06 0.66 c-0.42 -0.14 -0.76 -0.42 -1.04 -0.76 c-0.5 -0.54 -0.82 -1.2 -1.04 -1.92 c-0.16 -0.5 -0.24 -1.02 -0.28 -1.54 c-0.06 -1.44 0.06 -2.86 0.5 -4.24 c0.28 -0.88 0.68 -1.7 1.26 -2.44 c1.28 -1.56 3.14 -1.68 4.54 -1.16 c0.58 0.2 1.06 0.56 1.46 1.04 c0.24 0.32 0.4 0.68 0.48 1.08 c0.06 0.36 -0.08 0.62 -0.44 0.74 c-0.42 0.14 -0.86 0.14 -1.28 0 c-0.2 -0.06 -0.36 -0.2 -0.44 -0.4 c-0.08 -0.14 -0.14 -0.28 -0.22 -0.4 c-0.24 -0.38 -0.52 -0.72 -0.98 -0.98 c-0.3 0.2 -0.52 0.46 -0.72 0.74 c-0.54 0.76 -0.86 1.62 -1.06 2.52 c-0.32 1.38 -0.42 2.76 -0.24 4.16 c0.08 0.58 0.22 1.14 0.46 1.68 c0.16 0.34 0.34 0.66 0.64 0.94 c0.12 -0.04 0.24 -0.08 0.32 -0.18 c0.36 -0.3 0.7 -0.62 1.02 -0.96 c0.38 -0.4 0.76 -0.8 1.04 -1.26 c0.36 -0.54 1.44 -0.62 1.96 -0.3 z M0.92 16.740000000000002 c0.14 0.32 0.16 -0.06 0.1 -0.26 c-0.02 -0.1 -0.06 -0.2 -0.1 -0.32 l0 -0.02 l-0.02 0 c-0.02 -0.1 -0.06 -0.18 -0.06 -0.26 c0 0 -0.06 0.52 0.08 0.86 z M2.06 9.28 c0.02 -0.08 0.02 -0.18 -0.06 -0.18 c-0.06 -0.02 -0.12 0.04 -0.18 0.08 c-0.02 0.04 -0.04 0.08 -0.06 0.1 c-0.96 2.02 -1.34 4.14 -0.9 6.36 l0 -1.02 c-0.02 -1.78 0.32 -3.48 1.08 -5.08 c0.04 -0.1 0.08 -0.18 0.12 -0.26 z M16.380000000000003 11.36 c-0.1 1.48 -0.22 2.96 -0.28 4.44 c-0.04 1.14 0 2.28 0 3.44 c0 0.04 0.02 0.1 0.02 0.16 c0 0.44 -0.12 0.58 -0.54 0.7 c-0.38 0.08 -0.74 0.08 -1.12 0 c-0.42 -0.1 -0.6 -0.26 -0.64 -0.7 c-0.08 -0.72 -0.1 -1.44 -0.16 -2.16 c-0.02 -0.2 -0.02 -0.4 -0.04 -0.66 c-0.86 -0.08 -1.66 -0.02 -2.48 0.14 c-0.12 0.24 -0.1 0.48 -0.14 0.72 c-0.02 0.2 -0.02 0.4 -0.04 0.6 c-0.02 0.26 -0.16 0.4 -0.4 0.48 c-0.38 0.12 -0.76 0.12 -1.14 0 c-0.24 -0.08 -0.4 -0.26 -0.42 -0.54 c-0.02 -0.16 -0.02 -0.32 -0.02 -0.5 c-0.08 -2.7 0.46 -5.28 1.48 -7.78 c0.3 -0.76 0.68 -1.48 1.14 -2.16 c0.18 -0.26 0.38 -0.5 0.58 -0.74 c0.84 -1 2.3 -0.94 3.06 -0.56 c0.36 0.18 0.6 0.48 0.76 0.84 c0.18 0.4 0.26 0.82 0.32 1.24 c0.14 1 0.12 2.02 0.06 3.04 z M10.5 11.34 c0.44 -1.48 1.1 -2.86 2.02 -4.12 c0.08 -0.08 0.14 -0.2 0.24 -0.38 c0.12 -0.28 -0.22 0 -0.26 0.04 c-0.12 0.12 -0.22 0.24 -0.32 0.38 c-0.82 1.14 -1.4 2.38 -1.84 3.72 c-0.24 0.7 -0.4 1.42 -0.58 2.14 c-0.12 0.5 -0.22 1 -0.28 1.52 c-0.08 0.5 -0.08 0.98 -0.04 1.48 c0.06 -0.08 0.08 -0.18 0.08 -0.28 c0.1 -0.6 0.14 -1.18 0.28 -1.76 c0.2 -0.92 0.44 -1.84 0.7 -2.74 z M13.48 15.48 c0.08 -0.44 0.18 -6.54 0.12 -7.12 c-0.12 0.12 -0.16 0.16 -0.2 0.22 c-0.12 0.22 -0.24 0.42 -0.34 0.64 c-0.92 1.94 -1.52 4 -1.82 6.12 c-0.02 0.08 0.02 0.14 0.02 0.24 c0.78 -0.04 1.5 -0.08 2.22 -0.1 z M15.74 10.18 c0.04 0.5 0.36 0.64 0.38 0.18 c0.12 -3.04 -0.66 -3.56 -0.66 -3.56 c0.26 0.46 0.26 2.88 0.28 3.38 z M25 11.14 c0.1 0.48 0 0.64 -0.48 0.78 c-0.4 0.1 -0.78 0.08 -1.16 -0.02 c-0.34 -0.08 -0.58 -0.28 -0.68 -0.62 c-0.08 -0.24 -0.14 -0.48 -0.2 -0.72 c-0.16 -0.68 -0.32 -1.36 -0.5 -2.02 c-0.06 -0.26 -0.16 -0.52 -0.26 -0.78 c-0.04 -0.1 -0.12 -0.2 -0.2 -0.36 c-0.36 0.28 -0.56 0.6 -0.68 0.96 c-0.26 0.82 -0.4 1.66 -0.28 2.52 c0.08 0.48 0.2 0.96 0.32 1.42 c0.26 0.92 0.74 1.74 1.42 2.42 c0.18 0.18 0.38 0.34 0.54 0.54 c0.26 0.32 0.56 0.64 0.78 1 c0.56 0.88 0.42 1.82 -0.32 2.54 c-0.46 0.44 -1 0.76 -1.6 0.96 c-0.94 0.3 -1.86 0.28 -2.78 -0.04 c-0.3 -0.12 -0.6 -0.28 -0.84 -0.48 c-0.58 -0.44 -0.74 -1.16 -0.42 -1.82 c0.4 -0.86 1.52 -1.32 2.42 -0.98 c0.06 0.02 0.12 0.06 0.18 0.1 c0.16 0.1 0.2 0.26 0.06 0.4 c-0.08 0.08 -0.2 0.16 -0.28 0.26 c-0.26 0.28 -0.42 0.62 -0.38 1.02 c0.02 0.28 0.14 0.5 0.38 0.66 c0.2 0.14 0.4 0.16 0.6 0.02 c0.18 -0.12 0.36 -0.24 0.52 -0.38 c0.42 -0.44 0.5 -0.98 0.22 -1.54 c-0.08 -0.16 -0.16 -0.32 -0.28 -0.44 c-0.22 -0.28 -0.44 -0.52 -0.68 -0.76 c-0.16 -0.2 -0.36 -0.36 -0.54 -0.54 c-0.78 -0.76 -1.3 -1.68 -1.58 -2.74 c-0.34 -1.28 -0.4 -2.54 -0.06 -3.82 c0.42 -1.66 1.74 -2.44 3.06 -2.54 c0.36 -0.04 0.72 -0.02 1.08 0.04 c0.84 0.12 1.42 0.62 1.78 1.38 c0.22 0.44 0.34 0.9 0.42 1.38 c0.14 0.72 0.28 1.46 0.42 2.2 z M19.52 7.4399999999999995 c0.02 -0.04 0 -0.12 0 -0.24 c-0.1 0.06 -0.18 0.08 -0.22 0.14 c-0.38 0.52 -0.68 1.06 -0.84 1.7 c-0.16 0.66 -0.08 1.34 -0.04 2 c0.04 -0.28 0.04 -0.58 0.06 -0.86 c0.02 -0.78 0.22 -1.5 0.66 -2.16 c0.12 -0.18 0.26 -0.38 0.38 -0.58 z M19.560000000000002 16.82 c0.1 0 0.02 -0.2 -0.08 -0.2 c-0.14 0 -0.28 0.02 -0.42 0.06 c-0.08 -0.02 -0.12 0 -0.16 0.04 c-0.32 0.1 -0.62 0.3 -0.88 0.56 c-0.06 0.06 0.08 0.24 0.14 0.18 c0.38 -0.4 0.86 -0.62 1.4 -0.64 z M22.62 15.52 c-0.08 -0.1 -0.22 0 -0.12 0.1 c0.2 0.26 0.42 0.52 0.6 0.78 c0.02 0.02 0.02 0.04 0.04 0.08 l0 0 l0.02 0 c0.18 0.32 0.24 0.68 0.28 1.04 c0.02 0.12 0.2 0.2 0.2 0.06 c-0.04 -0.36 -0.1 -0.72 -0.26 -1.04 c-0.2 -0.38 -0.5 -0.7 -0.76 -1.02 z M23.82 7.699999999999999 c0 0.04 -0.02 0.06 -0.02 0.1 l0.02 0 l0 -0.1 z M24.560000000000002 10.44 c0 -0.06 0.04 -0.14 0.02 -0.2 c-0.14 -0.78 -0.3 -1.54 -0.58 -2.26 c-0.02 0.1 -0.02 0.2 0 0.3 c0.12 0.64 0.24 1.28 0.38 1.94 c0.02 0.1 0.02 0.2 0.18 0.22 z M33.38 8.78 c0.5 1.52 0.82 3.08 0.8 4.7 c-0.02 1.86 -0.56 3.6 -1.54 5.18 c-0.72 1.16 -1.8 1.6 -3.1 1.52 c-1.32 -0.06 -2.26 -0.74 -2.84 -1.9 c-0.42 -0.8 -0.64 -1.68 -0.78 -2.58 c-0.2 -1.2 -0.16 -2.42 -0.06 -3.64 c0.1 -1.08 0.24 -2.16 0.48 -3.22 c0.06 -0.24 0.14 -0.48 0.2 -0.74 c0.06 -0.2 0.2 -0.34 0.4 -0.42 c0.46 -0.16 0.96 -0.16 1.42 0 c0.28 0.1 0.42 0.3 0.38 0.6 c-0.04 0.7 -0.1 1.4 -0.16 2.1 c-0.08 1.16 -0.18 2.32 -0.16 3.48 c0.02 1.12 0.2 2.2 0.54 3.26 c0.14 0.44 0.32 0.86 0.56 1.24 c0.06 0.1 0.16 0.18 0.28 0.3 c0.12 -0.18 0.24 -0.34 0.36 -0.52 c0.54 -0.86 0.84 -1.82 1.08 -2.82 c0.22 -1 0.26 -2 0.16 -3.02 c-0.12 -1.18 -0.3 -2.34 -0.68 -3.46 c-0.08 -0.26 -0.1 -0.54 -0.16 -0.8 c-0.04 -0.24 0.06 -0.4 0.28 -0.48 c0.58 -0.26 1.2 -0.26 1.78 0 c0.14 0.06 0.28 0.2 0.34 0.34 c0.16 0.28 0.3 0.58 0.42 0.88 z M27.1 8.88 c0.02 -0.06 0.04 -0.22 -0.02 -0.24 c-0.16 0.02 -0.2 0.12 -0.22 0.22 c-0.18 0.6 -0.4 1.18 -0.48 1.78 c-0.26 1.7 -0.24 3.4 -0.02 5.1 c0.02 0.06 0.06 0.24 0.1 0.32 c0 -0.08 0.02 -0.3 0.02 -0.38 c-0.02 -1.2 -0.02 -2.42 0 -3.64 c0.02 -0.92 0.18 -1.82 0.48 -2.7 c0.06 -0.18 0.08 -0.28 0.14 -0.46 z M33.480000000000004 13.219999999999999 c0.02 0.4 0.3 0.66 0.3 0.16 c0 -0.12 0 -0.24 -0.02 -0.36 l0 -0.3 s-0.02 -0.18 -0.04 -0.28 c-0.08 -0.9 -0.24 -1.76 -0.5 -2.62 c0 -0.02 -0.02 -0.06 -0.02 -0.08 s-0.02 -0.04 -0.02 -0.08 c-0.08 -0.24 -0.28 -0.74 -0.42 -0.94 c-0.06 -0.08 -0.18 -0.04 -0.14 0.1 c0.54 1.42 0.82 2.9 0.86 4.4 z M42.32000000000001 11.36 c-0.1 1.48 -0.22 2.96 -0.28 4.44 c-0.04 1.14 0 2.28 0 3.44 c0 0.04 0.02 0.1 0.02 0.16 c0 0.44 -0.12 0.58 -0.54 0.7 c-0.38 0.08 -0.74 0.08 -1.12 0 c-0.42 -0.1 -0.6 -0.26 -0.64 -0.7 c-0.08 -0.72 -0.1 -1.44 -0.16 -2.16 c-0.02 -0.2 -0.02 -0.4 -0.04 -0.66 c-0.86 -0.08 -1.66 -0.02 -2.48 0.14 c-0.12 0.24 -0.1 0.48 -0.14 0.72 c-0.02 0.2 -0.02 0.4 -0.04 0.6 c-0.02 0.26 -0.16 0.4 -0.4 0.48 c-0.38 0.12 -0.76 0.12 -1.14 0 c-0.24 -0.08 -0.4 -0.26 -0.42 -0.54 c-0.02 -0.16 -0.02 -0.32 -0.02 -0.5 c-0.08 -2.7 0.46 -5.28 1.48 -7.78 c0.3 -0.76 0.68 -1.48 1.14 -2.16 c0.18 -0.26 0.38 -0.5 0.58 -0.74 c0.84 -1 2.3 -0.94 3.06 -0.56 c0.36 0.18 0.6 0.48 0.76 0.84 c0.18 0.4 0.26 0.82 0.32 1.24 c0.14 1 0.12 2.02 0.06 3.04 z M36.440000000000005 11.34 c0.44 -1.48 1.1 -2.86 2.02 -4.12 c0.08 -0.08 0.14 -0.2 0.24 -0.38 c0.12 -0.28 -0.22 0 -0.26 0.04 c-0.12 0.12 -0.22 0.24 -0.32 0.38 c-0.82 1.14 -1.4 2.38 -1.84 3.72 c-0.24 0.7 -0.4 1.42 -0.58 2.14 c-0.12 0.5 -0.22 1 -0.28 1.52 c-0.08 0.5 -0.08 0.98 -0.04 1.48 c0.06 -0.08 0.08 -0.18 0.08 -0.28 c0.1 -0.6 0.14 -1.18 0.28 -1.76 c0.2 -0.92 0.44 -1.84 0.7 -2.74 z M39.42 15.48 c0.08 -0.44 0.18 -6.54 0.12 -7.12 c-0.12 0.12 -0.16 0.16 -0.2 0.22 c-0.12 0.22 -0.24 0.42 -0.34 0.64 c-0.92 1.94 -1.52 4 -1.82 6.12 c-0.02 0.08 0.02 0.14 0.02 0.24 c0.78 -0.04 1.5 -0.08 2.22 -0.1 z M41.68000000000001 10.18 c0.04 0.5 0.36 0.64 0.38 0.18 c0.12 -3.04 -0.66 -3.56 -0.66 -3.56 c0.26 0.46 0.26 2.88 0.28 3.38 z M50.28000000000001 6.4399999999999995 c0.22 0.12 0.22 0.36 0.02 0.48 c-0.1 0.06 -0.22 0.12 -0.34 0.14 c-0.22 0.04 -0.44 0.06 -0.66 0.08 c-1.08 0.04 -2.18 0.1 -3.26 0.16 c-0.1 0 -0.2 0.02 -0.38 0.06 c0.06 1.04 0.02 2.04 0.08 3.04 c0.3 0.04 0.54 0 0.8 -0.02 c0.28 -0.02 0.58 -0.04 0.86 -0.04 s0.54 0.06 0.78 0.22 c0.22 0.14 0.22 0.36 0 0.48 c-0.16 0.08 -0.34 0.14 -0.5 0.18 l-1.62 0.18 c-0.1 0.02 -0.18 0.04 -0.3 0.04 c0 0.18 -0.02 0.32 -0.02 0.46 c0.02 2.4 0.04 4.82 0.08 7.24 l0 0.04 c0 0.54 -0.1 0.68 -0.62 0.8 c-0.36 0.08 -0.72 0.06 -1.06 -0.04 c-0.3 -0.1 -0.46 -0.28 -0.48 -0.6 c-0.12 -1.48 -0.32 -2.96 -0.28 -4.44 c0.02 -1.86 0.06 -3.7 0.1 -5.56 c0.02 -0.58 0.08 -1.16 0.1 -1.74 c0.02 -0.2 0 -0.4 -0.02 -0.58 c-0.04 -0.32 0.2 -0.72 0.5 -0.82 c0.34 -0.12 0.72 -0.14 1.06 -0.02 c0.26 0.1 0.52 0.12 0.8 0.12 c1.02 -0.04 2.04 -0.08 3.04 -0.1 c0.34 -0.02 0.66 -0.02 0.98 0.08 c0.12 0.04 0.24 0.1 0.34 0.16 z M44.220000000000006 7.800000000000001 c0.02 -0.1 0.06 -0.22 -0.12 -0.3 c-0.02 0.04 -0.08 0.1 -0.1 0.16 c-0.04 0.24 -0.08 0.5 -0.08 0.74 c-0.06 0.96 -0.1 1.9 -0.16 2.84 c-0.1 1.58 -0.14 3.18 -0.06 4.78 c0.04 0.58 0.08 1.14 0.12 1.72 l0.08 0 l0 -0.32 l0 -2.84 c0 -0.68 0.02 -1.38 0.04 -2.06 c0.06 -1.14 0.12 -2.28 0.2 -3.42 c0.02 -0.44 0.06 -0.88 0.08 -1.3 z M49.82000000000001 6.58 c0.18 0.02 0.22 -0.12 0.12 -0.14 c-0.68 -0.12 -1.44 0 -2.12 0.02 l-0.02 0 c-0.02 0 -0.04 0.02 -0.06 0.02 l-0.02 0 l-0.02 0 l0 0 l0 0 l0 0 l0.02 0 l0.02 0 c0.02 0 0.04 -0.02 0.06 -0.02 l0.02 0 c0.62 -0.02 1.36 0.06 2 0.12 z M57.14 10.62 c0.24 0.9 0.24 1.84 0.1 2.76 c-0.14 1 -0.36 2 -0.68 2.98 c-0.22 0.62 -0.48 1.22 -0.82 1.78 c-0.88 1.4 -2.52 1.94 -4.08 1.36 c-0.58 -0.24 -1 -0.64 -1.3 -1.18 c-0.36 -0.62 -0.56 -1.26 -0.72 -1.96 c-0.16 -0.78 -0.26 -1.58 -0.24 -2.4 c0 -1.14 0.14 -2.28 0.56 -3.34 c0.16 -0.4 0.34 -0.78 0.56 -1.14 c0.4 -0.64 0.92 -1.14 1.62 -1.44 c0.08 -0.02 0.14 -0.04 0.22 -0.08 c0.84 -0.5 1.68 -0.44 2.52 0.04 c0.22 0.14 0.46 0.3 0.68 0.44 c0.86 0.48 1.36 1.24 1.58 2.18 z M51.74 8.76 c0.14 -0.08 0.04 -0.08 -0.08 0 c-1.3 0.84 -1.82 2.3 -1.94 3.78 c-0.16 1.62 -0.16 3.44 0.66 4.9 c0.06 0.1 0.28 0 0.2 -0.12 c-0.74 -1.32 -0.74 -2.9 -0.66 -4.38 c0.08 -1.52 0.46 -3.3 1.82 -4.18 z M54.50000000000001 13.8 c0.1 -0.64 0.14 -1.3 0.1 -1.94 s-0.16 -1.28 -0.46 -1.84 c-0.2 -0.36 -0.44 -0.68 -0.84 -0.9 c-0.12 0.16 -0.22 0.28 -0.32 0.42 c-0.4 0.58 -0.64 1.24 -0.8 1.92 c-0.34 1.38 -0.38 2.78 -0.2 4.18 c0.08 0.7 0.26 1.4 0.54 2.06 c0.1 0.22 0.18 0.46 0.42 0.64 c0.1 -0.12 0.2 -0.2 0.26 -0.32 c0.2 -0.42 0.44 -0.86 0.6 -1.3 c0.36 -0.94 0.54 -1.92 0.7 -2.92 z M56.620000000000005 14.74 c0.26 -1 0.34 -2 0.24 -3.02 c-0.08 -0.72 -0.22 -1.66 -0.66 -2.26 c-0.06 -0.08 -0.18 -0.22 -0.04 -0.04 c0.24 0.36 0.26 0.92 0.34 1.44 c0.02 0.18 0.04 0.38 0.06 0.58 c0.02 0.22 0.04 0.44 0.04 0.64 c0.04 0.82 -0.06 1.66 -0.26 2.46 c-0.1 0.36 0.22 0.42 0.28 0.2 z M64.94 18.68 c0.12 0.08 0.24 0.18 0.22 0.34 c0 0.2 -0.16 0.28 -0.32 0.32 c-0.16 0.06 -0.32 0.08 -0.5 0.1 c-0.38 0.06 -0.76 0.1 -1.14 0.16 c-0.58 0.08 -1.16 0.18 -1.72 0.3 c-0.56 0.1 -1.1 0.16 -1.64 0.04 c-0.32 -0.08 -0.6 -0.16 -0.86 -0.34 c-0.2 -0.14 -0.3 -0.32 -0.32 -0.56 c-0.1 -2.12 -0.26 -4.24 -0.3 -6.36 c-0.04 -1.74 0.04 -3.48 0.08 -5.22 c0 -0.22 0.04 -0.42 0.06 -0.62 c0.02 -0.24 0.16 -0.4 0.4 -0.46 c0.6 -0.18 1.18 -0.14 1.72 0.22 c0.16 0.1 0.24 0.24 0.26 0.42 c0.04 0.24 0.06 0.5 0.08 0.76 c0.04 1.54 0.06 3.08 0.1 4.62 c0.06 1.84 0.14 3.7 0.2 5.54 c0 0.14 0.02 0.28 0.04 0.5 c0.36 -0.04 0.66 -0.06 0.94 -0.08 c0.62 -0.06 1.26 -0.04 1.88 0.04 c0.18 0.02 0.34 0.08 0.52 0.12 c0.1 0.04 0.2 0.1 0.3 0.16 z M59.06 9.1 l0 -0.6 c0 -0.06 -0.06 -0.12 -0.12 -0.24 c-0.06 0.14 -0.12 0.22 -0.12 0.28 c-0.2 2.74 -0.24 5.46 0.1 8.18 c0.02 -0.96 0.06 -1.9 0.02 -2.84 c-0.04 -1.6 0 -3.2 0.12 -4.78 z M64.56 18.8 c0.04 0.06 -0.02 -0.04 -0.04 -0.04 c-0.28 -0.22 -0.62 -0.28 -0.98 -0.28 c-0.52 -0.02 -1.12 0.02 -1.62 0.1 c-0.02 0 -0.14 0.1 0.06 0.08 c0.4 -0.04 0.92 -0.1 1.32 -0.1 c0.42 0 0.9 -0.02 1.26 0.24 z M68.42000000000002 12.86 c-0.06 1.54 -0.12 3.1 -0.2 4.64 c-0.02 0.7 -0.1 1.4 -0.14 2.1 c0 0.28 -0.14 0.46 -0.4 0.54 c-0.44 0.14 -0.88 0.14 -1.32 -0.02 c-0.24 -0.08 -0.36 -0.24 -0.4 -0.5 c-0.08 -0.86 -0.16 -1.72 -0.16 -2.58 c0.02 -1.34 0.04 -2.66 0.08 -4 c0.02 -0.74 0.06 -1.48 0.1 -2.2 c0.06 -1 0.12 -2 0.2 -3 c0 -0.18 0.04 -0.36 0.06 -0.52 c0.04 -0.28 0.2 -0.46 0.46 -0.54 c0.46 -0.14 0.92 -0.14 1.38 0.04 c0.24 0.08 0.38 0.26 0.38 0.52 c0.02 0.22 0.04 0.42 0.04 0.64 c-0.02 1.62 -0.06 3.12 -0.08 4.76 l0 0.12 z M66.26 18.18 c0.02 -0.12 0.04 -0.16 0.04 -0.22 c0.1 -0.96 0.08 -1.92 0.08 -2.9 c-0.02 -1.72 0.16 -3.46 0.32 -5.18 c0.04 -0.58 0.12 -1.16 0.18 -1.76 c0.02 -0.08 0 -0.18 -0.12 -0.2 c-0.04 0.04 -0.1 0.08 -0.1 0.12 c-0.44 3.36 -0.7 6.72 -0.4 10.14 z M77.56000000000002 10.62 c0.24 0.9 0.24 1.84 0.1 2.76 c-0.14 1 -0.36 2 -0.68 2.98 c-0.22 0.62 -0.48 1.22 -0.82 1.78 c-0.88 1.4 -2.52 1.94 -4.08 1.36 c-0.58 -0.24 -1 -0.64 -1.3 -1.18 c-0.36 -0.62 -0.56 -1.26 -0.72 -1.96 c-0.16 -0.78 -0.26 -1.58 -0.24 -2.4 c0 -1.14 0.14 -2.28 0.56 -3.34 c0.16 -0.4 0.34 -0.78 0.56 -1.14 c0.4 -0.64 0.92 -1.14 1.62 -1.44 c0.08 -0.02 0.14 -0.04 0.22 -0.08 c0.84 -0.5 1.68 -0.44 2.52 0.04 c0.22 0.14 0.46 0.3 0.68 0.44 c0.86 0.48 1.36 1.24 1.58 2.18 z M72.16000000000001 8.76 c0.14 -0.08 0.04 -0.08 -0.08 0 c-1.3 0.84 -1.82 2.3 -1.94 3.78 c-0.16 1.62 -0.16 3.44 0.66 4.9 c0.06 0.1 0.28 0 0.2 -0.12 c-0.74 -1.32 -0.74 -2.9 -0.66 -4.38 c0.08 -1.52 0.46 -3.3 1.82 -4.18 z M74.92000000000002 13.8 c0.1 -0.64 0.14 -1.3 0.1 -1.94 s-0.16 -1.28 -0.46 -1.84 c-0.2 -0.36 -0.44 -0.68 -0.84 -0.9 c-0.12 0.16 -0.22 0.28 -0.32 0.42 c-0.4 0.58 -0.64 1.24 -0.8 1.92 c-0.34 1.38 -0.38 2.78 -0.2 4.18 c0.08 0.7 0.26 1.4 0.54 2.06 c0.1 0.22 0.18 0.46 0.42 0.64 c0.1 -0.12 0.2 -0.2 0.26 -0.32 c0.2 -0.42 0.44 -0.86 0.6 -1.3 c0.36 -0.94 0.54 -1.92 0.7 -2.92 z M77.04000000000002 14.74 c0.26 -1 0.34 -2 0.24 -3.02 c-0.08 -0.72 -0.22 -1.66 -0.66 -2.26 c-0.06 -0.08 -0.18 -0.22 -0.04 -0.04 c0.24 0.36 0.26 0.92 0.34 1.44 c0.02 0.18 0.04 0.38 0.06 0.58 c0.02 0.22 0.04 0.44 0.04 0.64 c0.04 0.82 -0.06 1.66 -0.26 2.46 c-0.1 0.36 0.22 0.42 0.28 0.2 z"/></g>
			</g>
		</svg>
	