<?xml version="1.0" encoding="UTF-8" standalone="no"?>
<!-- Created with Inkscape (http://www.inkscape.org/) -->

<svg
   width="240"
   height="104"
   viewBox="0 0 63.500008 27.516678"
   version="1.1"
   id="svg1"
   inkscape:version="1.3.2 (091e20e, 2023-11-25)"
   sodipodi:docname="InsanFolio Perfecta.svg"
   xmlns:inkscape="http://www.inkscape.org/namespaces/inkscape"
   xmlns:sodipodi="http://sodipodi.sourceforge.net/DTD/sodipodi-0.dtd"
   xmlns="http://www.w3.org/2000/svg"
   xmlns:svg="http://www.w3.org/2000/svg">
  <sodipodi:namedview
     id="namedview1"
     pagecolor="#ffffff"
     bordercolor="#000000"
     borderopacity="0.25"
     inkscape:showpageshadow="2"
     inkscape:pageopacity="0.0"
     inkscape:pagecheckerboard="0"
     inkscape:deskcolor="#d1d1d1"
     inkscape:document-units="px"
     showgrid="true"
     inkscape:zoom="1.8486026"
     inkscape:cx="95.748002"
     inkscape:cy="29.481729"
     inkscape:window-width="1512"
     inkscape:window-height="846"
     inkscape:window-x="0"
     inkscape:window-y="38"
     inkscape:window-maximized="0"
     inkscape:current-layer="layer1"
     showguides="true">
    <inkscape:grid
       id="grid5"
       units="px"
       originx="0"
       originy="0"
       spacingx="0.26458333"
       spacingy="0.26458333"
       empcolor="#0099e5"
       empopacity="0.30196078"
       color="#0099e5"
       opacity="0.14901961"
       empspacing="8"
       dotted="false"
       gridanglex="30"
       gridanglez="30"
       visible="true" />
  </sodipodi:namedview>
  <defs
     id="defs1">
    <rect
       x="-1.5642965"
       y="-0.52143216"
       width="201.79424"
       height="129.31517"
       id="rect10" />
    <rect
       x="61.007565"
       y="38.585979"
       width="106.89359"
       height="32.328793"
       id="rect9" />
    <rect
       x="65.700455"
       y="33.371658"
       width="120.97226"
       height="59.964699"
       id="rect8" />
    <rect
       x="43.800301"
       y="32.850227"
       width="146.00101"
       height="76.650528"
       id="rect7" />
    <rect
       x="50.578918"
       y="63.093292"
       width="114.71508"
       height="44.321735"
       id="rect6" />
    <rect
       x="295.22083"
       y="270.61908"
       width="69.868927"
       height="61.996372"
       id="rect5" />
    <rect
       x="137.93674"
       y="252.09129"
       width="608.82422"
       height="665.90149"
       id="rect2" />
    <rect
       x="209.28333"
       y="328.19431"
       width="480.40036"
       height="504.18256"
       id="rect1" />
  </defs>
  <g
     inkscape:label="Layer 1"
     inkscape:groupmode="layer"
     id="layer1">
    <text
       xml:space="preserve"
       transform="scale(0.26458333)"
       id="text1"
       style="white-space:pre;shape-inside:url(#rect1);display:inline;fill:#000000" />
    <text
       xml:space="preserve"
       transform="scale(0.26458333)"
       id="text2"
       style="white-space:pre;shape-inside:url(#rect2);display:inline;fill:#000000" />
    <text
       xml:space="preserve"
       style="font-size:3.175px;fill:#000000;stroke-width:0.264583"
       x="88.26487"
       y="88.525238"
       id="text4"><tspan
         sodipodi:role="line"
         id="tspan4"
         style="stroke-width:0.264583"
         x="88.26487"
         y="88.525238" /></text>
    <text
       xml:space="preserve"
       transform="scale(0.26458333)"
       id="text5"
       style="white-space:pre;shape-inside:url(#rect5);display:inline;fill:#000000" />
    <text
       xml:space="preserve"
       transform="scale(0.26458333)"
       id="text6"
       style="white-space:pre;shape-inside:url(#rect6);display:inline;fill:none" />
    <text
       xml:space="preserve"
       transform="scale(0.26458333)"
       id="text7"
       style="white-space:pre;shape-inside:url(#rect7);display:inline;fill:none" />
    <text
       xml:space="preserve"
       transform="scale(0.26458333)"
       id="text8"
       style="white-space:pre;shape-inside:url(#rect8);display:inline;fill:none" />
    <text
       xml:space="preserve"
       transform="scale(0.26458333)"
       id="text9"
       style="white-space:pre;shape-inside:url(#rect9);display:inline;fill:#000000" />
    <text
       xml:space="preserve"
       transform="scale(0.26458333)"
       id="text10"
       style="white-space:pre;shape-inside:url(#rect10);display:inline;fill:#000000" />
    <path
       id="text12"
       style="font-size:7.05556px;letter-spacing:-2.07698px;opacity:1;fill:#4d4d4d;fill-opacity:1;stroke-width:0.264583"
       sodipodi:type="inkscape:offset"
       inkscape:radius="-0.045063574"
       inkscape:original="M 17.419922 13.169922 C 17.291305 13.169922 17.190683 13.204536 17.117188 13.273438 C 17.043692 13.342339 17.005859 13.421803 17.005859 13.513672 C 17.005859 13.605541 17.043692 13.685004 17.117188 13.753906 C 17.190683 13.822808 17.291305 13.857422 17.419922 13.857422 L 22.228516 13.857422 C 22.357133 13.857422 22.459708 13.822808 22.533203 13.753906 C 22.606699 13.685004 22.642578 13.605541 22.642578 13.513672 C 22.642578 13.421803 22.606699 13.342339 22.533203 13.273438 C 22.459708 13.204536 22.357133 13.169922 22.228516 13.169922 L 17.419922 13.169922 z M 17.419922 14.050781 C 17.291305 14.050781 17.190683 14.085395 17.117188 14.154297 C 17.043692 14.223199 17.005859 14.304615 17.005859 14.396484 C 17.005859 14.488354 17.043692 14.567817 17.117188 14.636719 C 17.190683 14.705621 17.291305 14.740234 17.419922 14.740234 L 18.701172 14.740234 C 18.829789 14.740234 18.930411 14.705621 19.003906 14.636719 C 19.077402 14.567817 19.115234 14.488354 19.115234 14.396484 C 19.115234 14.304615 19.077402 14.223199 19.003906 14.154297 C 18.930411 14.085395 18.829789 14.050781 18.701172 14.050781 L 17.419922 14.050781 z M 28.259766 14.050781 C 28.131149 14.050781 28.028574 14.085395 27.955078 14.154297 C 27.881583 14.223199 27.845703 14.304615 27.845703 14.396484 C 27.845703 14.488354 27.881583 14.567817 27.955078 14.636719 C 28.028574 14.705621 28.131149 14.740234 28.259766 14.740234 L 30.421875 14.740234 C 30.550492 14.740234 30.651114 14.705621 30.724609 14.636719 C 30.798105 14.567817 30.835938 14.488354 30.835938 14.396484 C 30.835938 14.304615 30.798105 14.223199 30.724609 14.154297 C 30.651114 14.085395 30.550492 14.050781 30.421875 14.050781 L 28.259766 14.050781 z M 34.119141 14.050781 C 33.990524 14.050781 33.889902 14.085395 33.816406 14.154297 C 33.742911 14.223199 33.705078 14.304615 33.705078 14.396484 C 33.705078 14.488354 33.742911 14.567817 33.816406 14.636719 C 33.889902 14.705621 33.990524 14.740234 34.119141 14.740234 L 35.400391 14.740234 C 35.529008 14.740234 35.631583 14.705621 35.705078 14.636719 C 35.778574 14.567817 35.814453 14.488354 35.814453 14.396484 C 35.814453 14.304615 35.778574 14.223199 35.705078 14.154297 C 35.631583 14.085395 35.529008 14.050781 35.400391 14.050781 L 34.119141 14.050781 z M 17.419922 14.933594 C 17.291305 14.933594 17.190683 14.968207 17.117188 15.037109 C 17.043692 15.106011 17.005859 15.185474 17.005859 15.277344 C 17.005859 15.369213 17.043692 15.450629 17.117188 15.519531 C 17.190683 15.588433 17.291305 15.621094 17.419922 15.621094 L 18.701172 15.621094 C 18.829789 15.621094 18.930411 15.588433 19.003906 15.519531 C 19.077402 15.450629 19.115234 15.369213 19.115234 15.277344 C 19.115234 15.185474 19.077402 15.106011 19.003906 15.037109 C 18.930411 14.968207 18.829789 14.933594 18.701172 14.933594 L 17.419922 14.933594 z M 23.28125 14.933594 C 23.152633 14.933594 23.050058 14.968207 22.976562 15.037109 C 22.903067 15.106011 22.867188 15.185474 22.867188 15.277344 C 22.867188 15.369213 22.903067 15.450629 22.976562 15.519531 C 23.050058 15.588433 23.152633 15.621094 23.28125 15.621094 L 26.326172 15.621094 C 26.454789 15.621094 26.555411 15.588433 26.628906 15.519531 C 26.702402 15.450629 26.738281 15.369213 26.738281 15.277344 C 26.738281 15.185474 26.702402 15.106011 26.628906 15.037109 C 26.555411 14.968207 26.454789 14.933594 26.326172 14.933594 L 23.28125 14.933594 z M 29.140625 14.933594 C 29.012008 14.933594 28.911386 14.968207 28.837891 15.037109 C 28.764395 15.106011 28.726562 15.185474 28.726562 15.277344 C 28.726562 15.369213 28.764395 15.450629 28.837891 15.519531 C 28.911386 15.588433 29.012008 15.621094 29.140625 15.621094 L 30.421875 15.621094 C 30.550492 15.621094 30.651114 15.588433 30.724609 15.519531 C 30.798105 15.450629 30.835938 15.369213 30.835938 15.277344 C 30.835938 15.185474 30.798105 15.106011 30.724609 15.037109 C 30.651114 14.968207 30.550492 14.933594 30.421875 14.933594 L 29.140625 14.933594 z M 38.216797 14.933594 C 38.08818 14.933594 37.985605 14.968207 37.912109 15.037109 C 37.838614 15.106011 37.802734 15.185474 37.802734 15.277344 C 37.802734 15.369213 37.838614 15.450629 37.912109 15.519531 C 37.985605 15.588433 38.08818 15.621094 38.216797 15.621094 L 41.261719 15.621094 C 41.390336 15.621094 41.490958 15.588433 41.564453 15.519531 C 41.637949 15.450629 41.675781 15.369213 41.675781 15.277344 C 41.675781 15.185474 41.637949 15.106011 41.564453 15.037109 C 41.490958 14.968207 41.390336 14.933594 41.261719 14.933594 L 38.216797 14.933594 z M 17.419922 15.814453 C 17.291305 15.814453 17.190683 15.849067 17.117188 15.917969 C 17.043692 15.986871 17.005859 16.068287 17.005859 16.160156 C 17.005859 16.252026 17.043692 16.331489 17.117188 16.400391 C 17.190683 16.469293 17.291305 16.503906 17.419922 16.503906 L 20.464844 16.503906 C 20.593461 16.503906 20.694083 16.469293 20.767578 16.400391 C 20.841074 16.331489 20.878906 16.252026 20.878906 16.160156 C 20.878906 16.068287 20.841074 15.986871 20.767578 15.917969 C 20.694083 15.849067 20.593461 15.814453 20.464844 15.814453 L 17.419922 15.814453 z M 22.398438 15.814453 C 22.269821 15.814453 22.169199 15.849067 22.095703 15.917969 C 22.022208 15.986871 21.984375 16.068287 21.984375 16.160156 C 21.984375 16.252026 22.022208 16.331489 22.095703 16.400391 C 22.169199 16.469293 22.269821 16.503906 22.398438 16.503906 L 23.679688 16.503906 C 23.808304 16.503906 23.908926 16.469293 23.982422 16.400391 C 24.055917 16.331489 24.09375 16.252026 24.09375 16.160156 C 24.09375 16.068287 24.055917 15.986871 23.982422 15.917969 C 23.908926 15.849067 23.808304 15.814453 23.679688 15.814453 L 22.398438 15.814453 z M 25.925781 15.814453 C 25.797164 15.814453 25.696542 15.849067 25.623047 15.917969 C 25.549551 15.986871 25.513672 16.068287 25.513672 16.160156 C 25.513672 16.252026 25.549551 16.331489 25.623047 16.400391 C 25.696542 16.469293 25.797164 16.503906 25.925781 16.503906 L 27.207031 16.503906 C 27.335648 16.503906 27.438223 16.469293 27.511719 16.400391 C 27.585214 16.331489 27.621094 16.252026 27.621094 16.160156 C 27.621094 16.068287 27.585214 15.986871 27.511719 15.917969 C 27.438223 15.849067 27.335648 15.814453 27.207031 15.814453 L 25.925781 15.814453 z M 29.140625 15.814453 C 29.012008 15.814453 28.911386 15.849067 28.837891 15.917969 C 28.764395 15.986871 28.726562 16.068287 28.726562 16.160156 C 28.726562 16.252026 28.764395 16.331489 28.837891 16.400391 C 28.911386 16.469293 29.012008 16.503906 29.140625 16.503906 L 30.421875 16.503906 C 30.550492 16.503906 30.651114 16.469293 30.724609 16.400391 C 30.798105 16.331489 30.835938 16.252026 30.835938 16.160156 C 30.835938 16.068287 30.798105 15.986871 30.724609 15.917969 C 30.651114 15.849067 30.550492 15.814453 30.421875 15.814453 L 29.140625 15.814453 z M 33.238281 15.814453 C 33.109664 15.814453 33.007089 15.849067 32.933594 15.917969 C 32.860098 15.986871 32.824219 16.068287 32.824219 16.160156 C 32.824219 16.252026 32.860098 16.331489 32.933594 16.400391 C 33.007089 16.469293 33.109664 16.503906 33.238281 16.503906 L 35.400391 16.503906 C 35.529008 16.503906 35.631583 16.469293 35.705078 16.400391 C 35.778574 16.331489 35.814453 16.252026 35.814453 16.160156 C 35.814453 16.068287 35.778574 15.986871 35.705078 15.917969 C 35.631583 15.849067 35.529008 15.814453 35.400391 15.814453 L 33.238281 15.814453 z M 37.333984 15.814453 C 37.205367 15.814453 37.104745 15.849067 37.03125 15.917969 C 36.957755 15.986871 36.919922 16.068287 36.919922 16.160156 C 36.919922 16.252026 36.957755 16.331489 37.03125 16.400391 C 37.104745 16.469293 37.205367 16.503906 37.333984 16.503906 L 38.615234 16.503906 C 38.743851 16.503906 38.844473 16.469293 38.917969 16.400391 C 38.991464 16.331489 39.029297 16.252026 39.029297 16.160156 C 39.029297 16.068287 38.991464 15.986871 38.917969 15.917969 C 38.844473 15.849067 38.743851 15.814453 38.615234 15.814453 L 37.333984 15.814453 z M 40.861328 15.814453 C 40.732711 15.814453 40.632089 15.849067 40.558594 15.917969 C 40.485098 15.986871 40.449219 16.068287 40.449219 16.160156 C 40.449219 16.252026 40.485098 16.331489 40.558594 16.400391 C 40.632089 16.469293 40.732711 16.503906 40.861328 16.503906 L 42.142578 16.503906 C 42.271195 16.503906 42.37377 16.469293 42.447266 16.400391 C 42.520761 16.331489 42.556641 16.252026 42.556641 16.160156 C 42.556641 16.068287 42.520761 15.986871 42.447266 15.917969 C 42.37377 15.849067 42.271195 15.814453 42.142578 15.814453 L 40.861328 15.814453 z M 17.419922 16.697266 C 17.291305 16.697266 17.190683 16.731879 17.117188 16.800781 C 17.043692 16.869683 17.005859 16.949146 17.005859 17.041016 C 17.005859 17.132885 17.043692 17.214301 17.117188 17.283203 C 17.190683 17.352105 17.291305 17.386719 17.419922 17.386719 L 18.701172 17.386719 C 18.829789 17.386719 18.930411 17.352105 19.003906 17.283203 C 19.077402 17.214301 19.115234 17.132885 19.115234 17.041016 C 19.115234 16.949146 19.077402 16.869683 19.003906 16.800781 C 18.930411 16.731879 18.829789 16.697266 18.701172 16.697266 L 17.419922 16.697266 z M 22.398438 16.697266 C 22.269821 16.697266 22.169199 16.731879 22.095703 16.800781 C 22.022208 16.869683 21.984375 16.949146 21.984375 17.041016 C 21.984375 17.132885 22.022208 17.214301 22.095703 17.283203 C 22.169199 17.352105 22.269821 17.386719 22.398438 17.386719 L 23.679688 17.386719 C 23.808304 17.386719 23.908926 17.352105 23.982422 17.283203 C 24.055917 17.214301 24.09375 17.132885 24.09375 17.041016 C 24.09375 16.949146 24.055917 16.869683 23.982422 16.800781 C 23.908926 16.731879 23.808304 16.697266 23.679688 16.697266 L 22.398438 16.697266 z M 25.925781 16.697266 C 25.797164 16.697266 25.696542 16.731879 25.623047 16.800781 C 25.549551 16.869683 25.513672 16.949146 25.513672 17.041016 C 25.513672 17.132885 25.549551 17.214301 25.623047 17.283203 C 25.696542 17.352105 25.797164 17.386719 25.925781 17.386719 L 27.207031 17.386719 C 27.335648 17.386719 27.438223 17.352105 27.511719 17.283203 C 27.585214 17.214301 27.621094 17.132885 27.621094 17.041016 C 27.621094 16.949146 27.585214 16.869683 27.511719 16.800781 C 27.438223 16.731879 27.335648 16.697266 27.207031 16.697266 L 25.925781 16.697266 z M 29.140625 16.697266 C 29.012008 16.697266 28.911386 16.731879 28.837891 16.800781 C 28.764395 16.869683 28.726562 16.949146 28.726562 17.041016 C 28.726562 17.132885 28.764395 17.214301 28.837891 17.283203 C 28.911386 17.352105 29.012008 17.386719 29.140625 17.386719 L 30.421875 17.386719 C 30.550492 17.386719 30.651114 17.352105 30.724609 17.283203 C 30.798105 17.214301 30.835938 17.132885 30.835938 17.041016 C 30.835938 16.949146 30.798105 16.869683 30.724609 16.800781 C 30.651114 16.731879 30.550492 16.697266 30.421875 16.697266 L 29.140625 16.697266 z M 34.119141 16.697266 C 33.990524 16.697266 33.889902 16.731879 33.816406 16.800781 C 33.742911 16.869683 33.705078 16.949146 33.705078 17.041016 C 33.705078 17.132885 33.742911 17.214301 33.816406 17.283203 C 33.889902 17.352105 33.990524 17.386719 34.119141 17.386719 L 35.400391 17.386719 C 35.529008 17.386719 35.631583 17.352105 35.705078 17.283203 C 35.778574 17.214301 35.814453 17.132885 35.814453 17.041016 C 35.814453 16.949146 35.778574 16.869683 35.705078 16.800781 C 35.631583 16.731879 35.529008 16.697266 35.400391 16.697266 L 34.119141 16.697266 z M 37.333984 16.697266 C 37.205367 16.697266 37.104745 16.731879 37.03125 16.800781 C 36.957755 16.869683 36.919922 16.949146 36.919922 17.041016 C 36.919922 17.132885 36.957755 17.214301 37.03125 17.283203 C 37.104745 17.352105 37.205367 17.386719 37.333984 17.386719 L 38.615234 17.386719 C 38.743851 17.386719 38.844473 17.352105 38.917969 17.283203 C 38.991464 17.214301 39.029297 17.132885 39.029297 17.041016 C 39.029297 16.949146 38.991464 16.869683 38.917969 16.800781 C 38.844473 16.731879 38.743851 16.697266 38.615234 16.697266 L 37.333984 16.697266 z M 40.861328 16.697266 C 40.732711 16.697266 40.632089 16.731879 40.558594 16.800781 C 40.485098 16.869683 40.449219 16.949146 40.449219 17.041016 C 40.449219 17.132885 40.485098 17.214301 40.558594 17.283203 C 40.632089 17.352105 40.732711 17.386719 40.861328 17.386719 L 42.142578 17.386719 C 42.271195 17.386719 42.37377 17.352105 42.447266 17.283203 C 42.520761 17.214301 42.556641 17.132885 42.556641 17.041016 C 42.556641 16.949146 42.520761 16.869683 42.447266 16.800781 C 42.37377 16.731879 42.271195 16.697266 42.142578 16.697266 L 40.861328 16.697266 z M 17.419922 17.578125 C 17.291305 17.578125 17.190683 17.612739 17.117188 17.681641 C 17.043692 17.750543 17.005859 17.831959 17.005859 17.923828 C 17.005859 18.015697 17.043692 18.095161 17.117188 18.164062 C 17.190683 18.232964 17.291305 18.267578 17.419922 18.267578 L 18.701172 18.267578 C 18.829789 18.267578 18.930411 18.232964 19.003906 18.164062 C 19.077402 18.095161 19.115234 18.015697 19.115234 17.923828 C 19.115234 17.831959 19.077402 17.750543 19.003906 17.681641 C 18.930411 17.612739 18.829789 17.578125 18.701172 17.578125 L 17.419922 17.578125 z M 22.398438 17.578125 C 22.269821 17.578125 22.169199 17.612739 22.095703 17.681641 C 22.022208 17.750543 21.984375 17.831959 21.984375 17.923828 C 21.984375 18.015697 22.022208 18.095161 22.095703 18.164062 C 22.169199 18.232964 22.269821 18.267578 22.398438 18.267578 L 23.679688 18.267578 C 23.808304 18.267578 23.908926 18.232964 23.982422 18.164062 C 24.055917 18.095161 24.09375 18.015697 24.09375 17.923828 C 24.09375 17.831959 24.055917 17.750543 23.982422 17.681641 C 23.908926 17.612739 23.808304 17.578125 23.679688 17.578125 L 22.398438 17.578125 z M 25.925781 17.578125 C 25.797164 17.578125 25.696542 17.612739 25.623047 17.681641 C 25.549551 17.750543 25.513672 17.831959 25.513672 17.923828 C 25.513672 18.015697 25.549551 18.095161 25.623047 18.164062 C 25.696542 18.232964 25.797164 18.267578 25.925781 18.267578 L 27.207031 18.267578 C 27.335648 18.267578 27.438223 18.232964 27.511719 18.164062 C 27.585214 18.095161 27.621094 18.015697 27.621094 17.923828 C 27.621094 17.831959 27.585214 17.750543 27.511719 17.681641 C 27.438223 17.612739 27.335648 17.578125 27.207031 17.578125 L 25.925781 17.578125 z M 29.140625 17.578125 C 29.012008 17.578125 28.911386 17.612739 28.837891 17.681641 C 28.764395 17.750543 28.726562 17.831959 28.726562 17.923828 C 28.726562 18.015697 28.764395 18.095161 28.837891 18.164062 C 28.911386 18.232964 29.012008 18.267578 29.140625 18.267578 L 30.421875 18.267578 C 30.550492 18.267578 30.651114 18.232964 30.724609 18.164062 C 30.798105 18.095161 30.835938 18.015697 30.835938 17.923828 C 30.835938 17.831959 30.798105 17.750543 30.724609 17.681641 C 30.651114 17.612739 30.550492 17.578125 30.421875 17.578125 L 29.140625 17.578125 z M 34.119141 17.578125 C 33.990524 17.578125 33.889902 17.612739 33.816406 17.681641 C 33.742911 17.750543 33.705078 17.831959 33.705078 17.923828 C 33.705078 18.015697 33.742911 18.095161 33.816406 18.164062 C 33.889902 18.232964 33.990524 18.267578 34.119141 18.267578 L 35.400391 18.267578 C 35.529008 18.267578 35.631583 18.232964 35.705078 18.164062 C 35.778574 18.095161 35.814453 18.015697 35.814453 17.923828 C 35.814453 17.831959 35.778574 17.750543 35.705078 17.681641 C 35.631583 17.612739 35.529008 17.578125 35.400391 17.578125 L 34.119141 17.578125 z M 37.333984 17.578125 C 37.205367 17.578125 37.104745 17.612739 37.03125 17.681641 C 36.957755 17.750543 36.919922 17.831959 36.919922 17.923828 C 36.919922 18.015697 36.957755 18.095161 37.03125 18.164062 C 37.104745 18.232964 37.205367 18.267578 37.333984 18.267578 L 38.615234 18.267578 C 38.743851 18.267578 38.844473 18.232964 38.917969 18.164062 C 38.991464 18.095161 39.029297 18.015697 39.029297 17.923828 C 39.029297 17.831959 38.991464 17.750543 38.917969 17.681641 C 38.844473 17.612739 38.743851 17.578125 38.615234 17.578125 L 37.333984 17.578125 z M 40.861328 17.578125 C 40.732711 17.578125 40.632089 17.612739 40.558594 17.681641 C 40.485098 17.750543 40.449219 17.831959 40.449219 17.923828 C 40.449219 18.015697 40.485098 18.095161 40.558594 18.164062 C 40.632089 18.232964 40.732711 18.267578 40.861328 18.267578 L 42.142578 18.267578 C 42.271195 18.267578 42.37377 18.232964 42.447266 18.164062 C 42.520761 18.095161 42.556641 18.015697 42.556641 17.923828 C 42.556641 17.831959 42.520761 17.750543 42.447266 17.681641 C 42.37377 17.612739 42.271195 17.578125 42.142578 17.578125 L 40.861328 17.578125 z M 17.419922 18.460938 C 17.291305 18.460938 17.190683 18.495551 17.117188 18.564453 C 17.043692 18.633355 17.005859 18.712818 17.005859 18.804688 C 17.005859 18.896557 17.043692 18.977973 17.117188 19.046875 C 17.190683 19.115777 17.291305 19.150391 17.419922 19.150391 L 18.701172 19.150391 C 18.829789 19.150391 18.930411 19.115777 19.003906 19.046875 C 19.077402 18.977973 19.115234 18.896557 19.115234 18.804688 C 19.115234 18.712818 19.077402 18.633355 19.003906 18.564453 C 18.930411 18.495551 18.829789 18.460938 18.701172 18.460938 L 17.419922 18.460938 z M 23.28125 18.460938 C 23.152633 18.460938 23.050058 18.495551 22.976562 18.564453 C 22.903067 18.633355 22.867188 18.712818 22.867188 18.804688 C 22.867188 18.896557 22.903067 18.977973 22.976562 19.046875 C 23.050058 19.115777 23.152633 19.150391 23.28125 19.150391 L 26.326172 19.150391 C 26.454789 19.150391 26.555411 19.115777 26.628906 19.046875 C 26.702402 18.977973 26.738281 18.896557 26.738281 18.804688 C 26.738281 18.712818 26.702402 18.633355 26.628906 18.564453 C 26.555411 18.495551 26.454789 18.460938 26.326172 18.460938 L 23.28125 18.460938 z M 28.259766 18.460938 C 28.131149 18.460938 28.028574 18.495551 27.955078 18.564453 C 27.881583 18.633355 27.845703 18.712818 27.845703 18.804688 C 27.845703 18.896557 27.881583 18.977973 27.955078 19.046875 C 28.028574 19.115777 28.131149 19.150391 28.259766 19.150391 L 31.304688 19.150391 C 31.433304 19.150391 31.533926 19.115777 31.607422 19.046875 C 31.680917 18.977973 31.716797 18.896557 31.716797 18.804688 C 31.716797 18.712818 31.680917 18.633355 31.607422 18.564453 C 31.533926 18.495551 31.433304 18.460938 31.304688 18.460938 L 28.259766 18.460938 z M 33.238281 18.460938 C 33.109664 18.460938 33.007089 18.495551 32.933594 18.564453 C 32.860098 18.633355 32.824219 18.712818 32.824219 18.804688 C 32.824219 18.896557 32.860098 18.977973 32.933594 19.046875 C 33.007089 19.115777 33.109664 19.150391 33.238281 19.150391 L 36.283203 19.150391 C 36.41182 19.150391 36.512442 19.115777 36.585938 19.046875 C 36.659433 18.977973 36.697266 18.896557 36.697266 18.804688 C 36.697266 18.712818 36.659433 18.633355 36.585938 18.564453 C 36.512442 18.495551 36.41182 18.460938 36.283203 18.460938 L 33.238281 18.460938 z M 38.216797 18.460938 C 38.08818 18.460938 37.985605 18.495551 37.912109 18.564453 C 37.838614 18.633355 37.802734 18.712818 37.802734 18.804688 C 37.802734 18.896557 37.838614 18.977973 37.912109 19.046875 C 37.985605 19.115777 38.08818 19.150391 38.216797 19.150391 L 41.261719 19.150391 C 41.390336 19.150391 41.490958 19.115777 41.564453 19.046875 C 41.637949 18.977973 41.675781 18.896557 41.675781 18.804688 C 41.675781 18.712818 41.637949 18.633355 41.564453 18.564453 C 41.490958 18.495551 41.390336 18.460938 41.261719 18.460938 L 38.216797 18.460938 z "
       d="m 17.419922,13.214844 c -0.120532,0 -0.207468,0.03178 -0.271485,0.0918 -0.06651,0.06235 -0.09766,0.127534 -0.09766,0.207031 0,0.0795 0.03114,0.144675 0.09766,0.207031 0.06402,0.06002 0.150953,0.0918 0.271485,0.0918 h 4.808594 c 0.120531,0 0.209711,-0.03205 0.273437,-0.0918 0.06622,-0.06208 0.0957,-0.126895 0.0957,-0.207031 0,-0.08014 -0.02948,-0.144949 -0.0957,-0.207031 -0.06373,-0.05974 -0.152906,-0.0918 -0.273437,-0.0918 z m 0,0.880859 c -0.120532,0 -0.207468,0.03178 -0.271485,0.0918 -0.0662,0.06207 -0.09766,0.129487 -0.09766,0.208984 0,0.0795 0.03114,0.144676 0.09766,0.207032 0.06402,0.06001 0.150953,0.0918 0.271485,0.0918 h 1.28125 c 0.120532,0 0.207468,-0.03178 0.271484,-0.0918 0.06651,-0.06236 0.09766,-0.127533 0.09766,-0.207032 0,-0.0795 -0.03145,-0.146919 -0.09766,-0.208984 -0.06402,-0.06002 -0.150952,-0.0918 -0.271484,-0.0918 z m 10.839844,0 c -0.120532,0 -0.209711,0.03205 -0.273438,0.0918 -0.06591,0.06179 -0.0957,0.128849 -0.0957,0.208984 0,0.08014 0.02948,0.144948 0.0957,0.207032 0.06373,0.05974 0.152906,0.0918 0.273438,0.0918 h 2.162109 c 0.120532,0 0.207468,-0.03178 0.271484,-0.0918 0.06651,-0.06236 0.09766,-0.127533 0.09766,-0.207032 0,-0.0795 -0.03145,-0.146919 -0.09766,-0.208984 -0.06402,-0.06002 -0.150952,-0.0918 -0.271484,-0.0918 z m 5.859375,0 c -0.120532,0 -0.207467,0.03178 -0.271485,0.0918 -0.0662,0.06207 -0.09766,0.129487 -0.09766,0.208984 0,0.0795 0.03114,0.144676 0.09766,0.207032 0.06402,0.06002 0.150953,0.0918 0.271485,0.0918 h 1.28125 c 0.120532,0 0.209711,-0.03205 0.273437,-0.0918 0.06622,-0.06208 0.0957,-0.126894 0.0957,-0.207032 0,-0.08014 -0.02979,-0.147191 -0.0957,-0.208984 -0.06373,-0.05974 -0.152906,-0.0918 -0.273437,-0.0918 z m -16.699219,0.882813 c -0.120532,0 -0.207468,0.03178 -0.271485,0.0918 -0.06651,0.06236 -0.09766,0.127533 -0.09766,0.207031 0,0.0795 0.03145,0.146919 0.09766,0.208984 0.06371,0.05973 0.150497,0.08984 0.271485,0.08984 h 1.28125 c 0.120988,0 0.207778,-0.03012 0.271484,-0.08984 0.0662,-0.06207 0.09766,-0.129487 0.09766,-0.208984 0,-0.0795 -0.03114,-0.144676 -0.09766,-0.207031 -0.06402,-0.06002 -0.150952,-0.0918 -0.271484,-0.0918 z m 5.861328,0 c -0.120532,0 -0.209711,0.03205 -0.273438,0.0918 -0.06622,0.06208 -0.0957,0.126894 -0.0957,0.207031 0,0.08014 0.02979,0.147192 0.0957,0.208984 0.06342,0.05945 0.15245,0.08984 0.273438,0.08984 h 3.044922 c 0.120988,0 0.207778,-0.03012 0.271484,-0.08984 0.06591,-0.06179 0.0957,-0.128848 0.0957,-0.208984 0,-0.08014 -0.02948,-0.144948 -0.0957,-0.207031 -0.06402,-0.06002 -0.150952,-0.0918 -0.271484,-0.0918 z m 5.859375,0 c -0.120532,0 -0.207468,0.03178 -0.271484,0.0918 -0.06651,0.06236 -0.09766,0.127533 -0.09766,0.207031 0,0.0795 0.03145,0.146919 0.09766,0.208984 0.06371,0.05973 0.150496,0.08984 0.271484,0.08984 h 1.28125 c 0.120988,0 0.207778,-0.03012 0.271484,-0.08984 0.0662,-0.06207 0.09766,-0.129487 0.09766,-0.208984 0,-0.0795 -0.03114,-0.144676 -0.09766,-0.207031 -0.06402,-0.06002 -0.150952,-0.0918 -0.271484,-0.0918 z m 9.076172,0 c -0.120532,0 -0.209711,0.03205 -0.273438,0.0918 -0.06622,0.06208 -0.0957,0.126894 -0.0957,0.207031 0,0.08014 0.02979,0.147191 0.0957,0.208984 0.06342,0.05945 0.15245,0.08984 0.273438,0.08984 h 3.044922 c 0.120988,0 0.207778,-0.03012 0.271484,-0.08984 0.0662,-0.06207 0.09766,-0.129487 0.09766,-0.208984 0,-0.0795 -0.03114,-0.144676 -0.09766,-0.207031 -0.06402,-0.06002 -0.150952,-0.0918 -0.271484,-0.0918 z m -20.796875,0.880859 c -0.120532,0 -0.207468,0.03178 -0.271485,0.0918 -0.0662,0.06207 -0.09766,0.129487 -0.09766,0.208984 0,0.0795 0.03114,0.144676 0.09766,0.207031 0.06402,0.06002 0.150953,0.0918 0.271485,0.0918 h 3.044922 c 0.120532,0 0.207468,-0.03178 0.271484,-0.0918 0.06651,-0.06236 0.09766,-0.127532 0.09766,-0.207031 0,-0.0795 -0.03145,-0.146919 -0.09766,-0.208984 -0.06402,-0.06002 -0.150953,-0.0918 -0.271484,-0.0918 z m 4.978515,0 c -0.120531,0 -0.207466,0.03178 -0.271484,0.0918 -0.0662,0.06207 -0.09766,0.129487 -0.09766,0.208984 0,0.0795 0.03114,0.144676 0.09766,0.207031 0.06402,0.06002 0.150953,0.0918 0.271484,0.0918 h 1.28125 c 0.120531,0 0.207467,-0.03178 0.271485,-0.0918 0.06651,-0.06236 0.09766,-0.127533 0.09766,-0.207031 0,-0.0795 -0.03145,-0.146919 -0.09766,-0.208984 -0.06402,-0.06002 -0.150954,-0.0918 -0.271485,-0.0918 z m 3.527344,0 c -0.120531,0 -0.207468,0.03178 -0.271484,0.0918 -0.06591,0.06179 -0.0957,0.128848 -0.0957,0.208984 0,0.08014 0.02948,0.144948 0.0957,0.207031 0.06402,0.06002 0.150952,0.0918 0.271484,0.0918 h 1.28125 c 0.120532,0 0.209711,-0.03205 0.273438,-0.0918 0.06622,-0.06208 0.0957,-0.126894 0.0957,-0.207031 0,-0.08014 -0.02979,-0.147191 -0.0957,-0.208984 -0.06373,-0.05974 -0.152906,-0.0918 -0.273438,-0.0918 z m 3.214844,0 c -0.120532,0 -0.207468,0.03178 -0.271484,0.0918 -0.0662,0.06207 -0.09766,0.129487 -0.09766,0.208984 0,0.0795 0.03114,0.144676 0.09766,0.207031 0.06402,0.06002 0.150952,0.0918 0.271484,0.0918 h 1.28125 c 0.120532,0 0.207468,-0.03178 0.271484,-0.0918 0.06651,-0.06236 0.09766,-0.127533 0.09766,-0.207031 0,-0.0795 -0.03145,-0.146919 -0.09766,-0.208984 -0.06402,-0.06002 -0.150952,-0.0918 -0.271484,-0.0918 z m 4.097656,0 c -0.120531,0 -0.209711,0.03205 -0.273437,0.0918 -0.06591,0.06179 -0.0957,0.128848 -0.0957,0.208984 0,0.08014 0.02948,0.144948 0.0957,0.207031 0.06373,0.05974 0.152905,0.0918 0.273437,0.0918 h 2.16211 c 0.120532,0 0.209711,-0.03205 0.273437,-0.0918 0.06622,-0.06208 0.0957,-0.126894 0.0957,-0.207031 0,-0.08014 -0.02979,-0.147192 -0.0957,-0.208984 -0.06373,-0.05974 -0.152906,-0.0918 -0.273437,-0.0918 z m 4.095703,0 c -0.120531,0 -0.207467,0.03178 -0.271484,0.0918 -0.0662,0.06207 -0.09766,0.129487 -0.09766,0.208984 0,0.0795 0.03114,0.144676 0.09766,0.207031 0.06402,0.06002 0.150952,0.0918 0.271484,0.0918 h 1.28125 c 0.120532,0 0.207467,-0.03178 0.271485,-0.0918 0.06651,-0.06236 0.09766,-0.127533 0.09766,-0.207031 0,-0.0795 -0.03145,-0.146919 -0.09766,-0.208984 -0.06402,-0.06002 -0.150953,-0.0918 -0.271485,-0.0918 z m 3.527344,0 c -0.120532,0 -0.207468,0.03178 -0.271484,0.0918 -0.06591,0.06179 -0.0957,0.128848 -0.0957,0.208984 0,0.08014 0.02948,0.144948 0.0957,0.207031 0.06402,0.06002 0.150952,0.0918 0.271484,0.0918 h 1.28125 c 0.120532,0 0.209711,-0.03205 0.273438,-0.0918 0.06622,-0.06208 0.0957,-0.126894 0.0957,-0.207031 0,-0.08014 -0.02979,-0.147191 -0.0957,-0.208984 -0.06373,-0.05974 -0.152906,-0.0918 -0.273438,-0.0918 z m -23.441406,0.882812 c -0.120532,0 -0.207468,0.03178 -0.271485,0.0918 -0.06651,0.06236 -0.09766,0.127533 -0.09766,0.207032 0,0.0795 0.03145,0.146919 0.09766,0.208984 0.06402,0.06002 0.150953,0.0918 0.271485,0.0918 h 1.28125 c 0.120532,0 0.207468,-0.03178 0.271484,-0.0918 0.0662,-0.06207 0.09766,-0.129487 0.09766,-0.208984 0,-0.0795 -0.03114,-0.144676 -0.09766,-0.207032 -0.06402,-0.06001 -0.150952,-0.0918 -0.271484,-0.0918 z m 4.978515,0 c -0.120531,0 -0.207466,0.03178 -0.271484,0.0918 -0.06651,0.06236 -0.09766,0.127533 -0.09766,0.207032 0,0.0795 0.03145,0.146919 0.09766,0.208984 0.06402,0.06002 0.150953,0.0918 0.271484,0.0918 h 1.28125 c 0.120531,0 0.207467,-0.03178 0.271485,-0.0918 0.0662,-0.06207 0.09766,-0.129487 0.09766,-0.208984 0,-0.0795 -0.03114,-0.144676 -0.09766,-0.207032 -0.06402,-0.06002 -0.150954,-0.0918 -0.271485,-0.0918 z m 3.527344,0 c -0.120532,0 -0.207468,0.03178 -0.271484,0.0918 -0.06622,0.06208 -0.0957,0.126894 -0.0957,0.207032 0,0.08014 0.02979,0.147191 0.0957,0.208984 0.06402,0.06002 0.150953,0.0918 0.271484,0.0918 h 1.28125 c 0.120532,0 0.209711,-0.03205 0.273438,-0.0918 0.06591,-0.06179 0.0957,-0.128849 0.0957,-0.208984 0,-0.08014 -0.02948,-0.144948 -0.0957,-0.207032 -0.06373,-0.05974 -0.152906,-0.0918 -0.273438,-0.0918 z m 3.214844,0 c -0.120532,0 -0.207468,0.03178 -0.271484,0.0918 -0.06651,0.06236 -0.09766,0.127533 -0.09766,0.207032 0,0.0795 0.03145,0.146919 0.09766,0.208984 0.06402,0.06002 0.150952,0.0918 0.271484,0.0918 h 1.28125 c 0.120532,0 0.207468,-0.03178 0.271484,-0.0918 0.0662,-0.06207 0.09766,-0.129487 0.09766,-0.208984 0,-0.0795 -0.03114,-0.144676 -0.09766,-0.207032 -0.06402,-0.06001 -0.150952,-0.0918 -0.271484,-0.0918 z m 4.978516,0 c -0.120532,0 -0.207467,0.03178 -0.271485,0.0918 -0.06651,0.06236 -0.09766,0.127533 -0.09766,0.207032 0,0.0795 0.03145,0.146919 0.09766,0.208984 0.06402,0.06002 0.150953,0.0918 0.271485,0.0918 h 1.28125 c 0.120531,0 0.209711,-0.03205 0.273437,-0.0918 0.06591,-0.06179 0.0957,-0.128848 0.0957,-0.208984 0,-0.08014 -0.02948,-0.144948 -0.0957,-0.207032 -0.06373,-0.05974 -0.152905,-0.0918 -0.273437,-0.0918 z m 3.214843,0 c -0.120532,0 -0.207468,0.03178 -0.271484,0.0918 -0.06651,0.06236 -0.09766,0.127533 -0.09766,0.207032 0,0.0795 0.03145,0.146919 0.09766,0.208984 0.06402,0.06002 0.150953,0.0918 0.271484,0.0918 h 1.28125 c 0.120532,0 0.207467,-0.03178 0.271485,-0.0918 0.0662,-0.06207 0.09766,-0.129487 0.09766,-0.208984 0,-0.0795 -0.03114,-0.144676 -0.09766,-0.207032 -0.06402,-0.06002 -0.150953,-0.0918 -0.271485,-0.0918 z m 3.527344,0 c -0.120532,0 -0.207468,0.03178 -0.271484,0.0918 -0.06622,0.06208 -0.0957,0.126894 -0.0957,0.207032 0,0.08014 0.02979,0.147191 0.0957,0.208984 0.06402,0.06002 0.150952,0.0918 0.271484,0.0918 h 1.28125 c 0.120532,0 0.20971,-0.03205 0.273438,-0.0918 0.06591,-0.06179 0.0957,-0.128849 0.0957,-0.208984 0,-0.08014 -0.02948,-0.144948 -0.0957,-0.207032 -0.06373,-0.05974 -0.152906,-0.0918 -0.273438,-0.0918 z m -23.441406,0.88086 c -0.120532,0 -0.207468,0.03178 -0.271485,0.0918 -0.0662,0.06207 -0.09766,0.129487 -0.09766,0.208984 0,0.0795 0.03114,0.144677 0.09766,0.207031 0.06402,0.06002 0.150953,0.0918 0.271485,0.0918 h 1.28125 c 0.120532,0 0.207468,-0.03178 0.271484,-0.0918 0.06651,-0.06235 0.09766,-0.127534 0.09766,-0.207031 0,-0.0795 -0.03145,-0.146919 -0.09766,-0.208984 -0.06402,-0.06002 -0.150952,-0.0918 -0.271484,-0.0918 z m 4.978515,0 c -0.120531,0 -0.207466,0.03178 -0.271484,0.0918 -0.0662,0.06207 -0.09766,0.129487 -0.09766,0.208984 0,0.0795 0.03114,0.144677 0.09766,0.207031 0.06402,0.06002 0.150953,0.0918 0.271484,0.0918 h 1.28125 c 0.120531,0 0.207467,-0.03178 0.271485,-0.0918 0.06651,-0.06235 0.09766,-0.127534 0.09766,-0.207031 0,-0.0795 -0.03145,-0.146919 -0.09766,-0.208984 -0.06402,-0.06002 -0.150954,-0.0918 -0.271485,-0.0918 z m 3.527344,0 c -0.120531,0 -0.207468,0.03178 -0.271484,0.0918 -0.06591,0.06179 -0.0957,0.128848 -0.0957,0.208984 0,0.08014 0.02948,0.144949 0.0957,0.207031 0.06402,0.06002 0.150953,0.0918 0.271484,0.0918 h 1.28125 c 0.120532,0 0.209711,-0.03205 0.273438,-0.0918 0.06622,-0.06208 0.0957,-0.126895 0.0957,-0.207031 0,-0.08014 -0.02979,-0.147191 -0.0957,-0.208984 -0.06373,-0.05974 -0.152906,-0.0918 -0.273438,-0.0918 z m 3.214844,0 c -0.120532,0 -0.207468,0.03178 -0.271484,0.0918 -0.0662,0.06207 -0.09766,0.129487 -0.09766,0.208984 0,0.0795 0.03114,0.144677 0.09766,0.207031 0.06402,0.06002 0.150952,0.0918 0.271484,0.0918 h 1.28125 c 0.120532,0 0.207468,-0.03178 0.271484,-0.0918 0.06651,-0.06235 0.09766,-0.127534 0.09766,-0.207031 0,-0.0795 -0.03145,-0.146919 -0.09766,-0.208984 -0.06402,-0.06002 -0.150952,-0.0918 -0.271484,-0.0918 z m 4.978516,0 c -0.120532,0 -0.207467,0.03178 -0.271485,0.0918 -0.0662,0.06207 -0.09766,0.129487 -0.09766,0.208984 0,0.0795 0.03114,0.144677 0.09766,0.207031 0.06402,0.06002 0.150953,0.0918 0.271485,0.0918 h 1.28125 c 0.120531,0 0.209711,-0.03205 0.273437,-0.0918 0.06622,-0.06208 0.0957,-0.126895 0.0957,-0.207031 0,-0.08014 -0.02979,-0.147192 -0.0957,-0.208984 -0.06373,-0.05974 -0.152906,-0.0918 -0.273437,-0.0918 z m 3.214843,0 c -0.120531,0 -0.207467,0.03178 -0.271484,0.0918 -0.0662,0.06207 -0.09766,0.129487 -0.09766,0.208984 0,0.0795 0.03114,0.144677 0.09766,0.207031 0.06402,0.06002 0.150953,0.0918 0.271484,0.0918 h 1.28125 c 0.120532,0 0.207467,-0.03178 0.271485,-0.0918 0.06651,-0.06235 0.09766,-0.127534 0.09766,-0.207031 0,-0.0795 -0.03145,-0.146919 -0.09766,-0.208984 -0.06402,-0.06002 -0.150953,-0.0918 -0.271485,-0.0918 z m 3.527344,0 c -0.120532,0 -0.207468,0.03178 -0.271484,0.0918 -0.06591,0.06179 -0.0957,0.128848 -0.0957,0.208984 0,0.08014 0.02948,0.144949 0.0957,0.207031 0.06402,0.06002 0.150952,0.0918 0.271484,0.0918 h 1.28125 c 0.120532,0 0.20971,-0.03205 0.273438,-0.0918 0.06622,-0.06208 0.0957,-0.126895 0.0957,-0.207031 0,-0.08014 -0.02979,-0.147191 -0.0957,-0.208984 -0.06373,-0.05974 -0.152906,-0.0918 -0.273438,-0.0918 z m -23.441406,0.882812 c -0.120532,0 -0.207468,0.03178 -0.271485,0.0918 -0.06651,0.06236 -0.09766,0.127533 -0.09766,0.207031 0,0.0795 0.03145,0.14692 0.09766,0.208985 0.06402,0.06002 0.150953,0.0918 0.271485,0.0918 h 1.28125 c 0.120532,0 0.207468,-0.03178 0.271484,-0.0918 0.0662,-0.06207 0.09766,-0.129487 0.09766,-0.208985 0,-0.0795 -0.03114,-0.144675 -0.09766,-0.207031 -0.06402,-0.06002 -0.150952,-0.0918 -0.271484,-0.0918 z m 5.861328,0 c -0.120532,0 -0.209711,0.03205 -0.273438,0.0918 -0.06622,0.06208 -0.0957,0.126894 -0.0957,0.207031 0,0.08014 0.02979,0.147192 0.0957,0.208985 0.06373,0.05974 0.152906,0.0918 0.273438,0.0918 h 3.044922 c 0.120532,0 0.207468,-0.03178 0.271484,-0.0918 0.06591,-0.06179 0.0957,-0.128848 0.0957,-0.208985 0,-0.08014 -0.02948,-0.144948 -0.0957,-0.207031 -0.06402,-0.06002 -0.150952,-0.0918 -0.271484,-0.0918 z m 4.978516,0 c -0.120532,0 -0.209711,0.03205 -0.273438,0.0918 -0.06622,0.06208 -0.0957,0.126895 -0.0957,0.207031 0,0.08014 0.02979,0.147192 0.0957,0.208985 0.06373,0.05974 0.152906,0.0918 0.273438,0.0918 h 3.044921 c 0.120531,0 0.207467,-0.03178 0.271485,-0.0918 0.06591,-0.06179 0.0957,-0.128849 0.0957,-0.208985 0,-0.08014 -0.02948,-0.144947 -0.0957,-0.207031 -0.06402,-0.06002 -0.150954,-0.0918 -0.271485,-0.0918 z m 4.978515,0 c -0.120532,0 -0.209711,0.03205 -0.273437,0.0918 -0.06622,0.06208 -0.0957,0.126894 -0.0957,0.207031 0,0.08014 0.02979,0.147192 0.0957,0.208985 0.06373,0.05974 0.152906,0.0918 0.273437,0.0918 h 3.044922 c 0.120532,0 0.207467,-0.03178 0.271484,-0.0918 0.0662,-0.06207 0.09766,-0.129487 0.09766,-0.208985 0,-0.0795 -0.03114,-0.144675 -0.09766,-0.207031 -0.06402,-0.06002 -0.150952,-0.0918 -0.271484,-0.0918 z m 4.978516,0 c -0.120532,0 -0.209711,0.03205 -0.273438,0.0918 -0.06622,0.06208 -0.0957,0.126895 -0.0957,0.207031 0,0.08014 0.02979,0.147192 0.0957,0.208985 0.06373,0.05974 0.152906,0.0918 0.273438,0.0918 h 3.044922 c 0.120531,0 0.207468,-0.03178 0.271484,-0.0918 0.0662,-0.06207 0.09766,-0.129487 0.09766,-0.208985 0,-0.0795 -0.03114,-0.144675 -0.09766,-0.207031 -0.06402,-0.06002 -0.150952,-0.0918 -0.271484,-0.0918 z"
       transform="matrix(1.4280195,0,0,1.897572,-7.8219218,-21.515991)" />
    <g
       id="g3">
      <path
         id="text11"
         style="font-size:11.2889px;fill:#000000;fill-opacity:1;stroke-width:0.264583"
         sodipodi:type="inkscape:offset"
         inkscape:radius="0.153715"
         inkscape:original="M 14.050781 13.580078 L 12.921875 13.716797 L 12.921875 22.160156 L 13.621094 22.160156 L 13.960938 22.160156 L 15.40625 22.160156 L 17.234375 22.160156 L 19.0625 22.160156 L 20.892578 22.160156 L 22.720703 22.160156 L 24.548828 22.160156 L 26.378906 22.160156 L 28.207031 22.160156 L 30.035156 22.160156 L 31.865234 22.160156 L 33.693359 22.160156 L 35.521484 22.160156 L 37.351562 22.160156 L 39.179688 22.160156 L 41.009766 22.160156 L 42.837891 22.160156 L 44.666016 22.160156 L 45.388672 22.160156 C 45.862806 22.160156 46.268755 22.136952 46.607422 22.091797 C 46.953615 22.046641 47.241019 21.978983 47.466797 21.888672 L 47.466797 21.798828 C 47.436693 21.663361 47.413489 21.502601 47.398438 21.314453 C 47.390912 21.126305 47.382526 20.933956 47.375 20.738281 L 47.375 20.21875 L 47.375 16.470703 L 47.285156 16.470703 L 46.337891 16.605469 L 46.337891 20.353516 C 46.337891 20.58682 46.352709 20.802373 46.382812 20.998047 C 46.39672 21.08497 46.40992 21.131918 46.423828 21.201172 L 44.892578 21.201172 L 43.0625 21.201172 L 41.234375 21.201172 L 39.40625 21.201172 L 37.576172 21.201172 L 35.748047 21.201172 L 33.919922 21.201172 L 32.089844 21.201172 L 30.261719 21.201172 L 28.433594 21.201172 L 26.603516 21.201172 L 24.775391 21.201172 L 22.947266 21.201172 L 21.117188 21.201172 L 19.289062 21.201172 L 17.460938 21.201172 L 15.630859 21.201172 L 13.960938 21.201172 L 13.960938 15.341797 L 13.960938 14.800781 C 13.968463 14.590055 13.974896 14.382888 13.982422 14.179688 C 13.997474 13.976487 14.020678 13.807342 14.050781 13.671875 L 14.050781 13.580078 z M 50.671875 13.580078 L 49.542969 13.716797 L 49.542969 22.160156 L 50.582031 22.160156 L 50.582031 15.341797 L 50.582031 14.800781 C 50.589557 14.590055 50.59599 14.382888 50.603516 14.179688 C 50.618567 13.976487 50.641771 13.807342 50.671875 13.671875 L 50.671875 13.580078 z M 46.822266 14.167969 C 46.649169 14.167969 46.503227 14.225002 46.382812 14.337891 C 46.269923 14.45078 46.212891 14.596721 46.212891 14.777344 C 46.212891 14.957966 46.269923 15.103908 46.382812 15.216797 C 46.503227 15.329686 46.649169 15.386719 46.822266 15.386719 C 46.995362 15.386719 47.139064 15.329686 47.251953 15.216797 C 47.372368 15.103908 47.431641 14.957966 47.431641 14.777344 C 47.431641 14.596721 47.372368 14.45078 47.251953 14.337891 C 47.139064 14.225002 46.995362 14.167969 46.822266 14.167969 z M 10.392578 17.193359 L 9.4453125 17.328125 C 9.5205718 17.772155 9.5840372 18.182297 9.6367188 18.558594 C 9.6894003 18.93489 9.731615 19.300578 9.7617188 19.654297 C 9.7918225 20.008016 9.8066406 20.375943 9.8066406 20.759766 C 9.8066406 21.264003 9.779244 21.720553 9.7265625 22.126953 C 9.6814069 22.525828 9.611509 22.88313 9.5136719 23.199219 C 9.4498781 23.405322 9.3511102 23.577307 9.2617188 23.757812 C 9.1031753 23.856777 8.943523 23.975779 8.7910156 24.023438 C 8.5501858 24.098697 8.3240074 24.136719 8.1132812 24.136719 C 7.8197698 24.136719 7.5365586 24.100937 7.265625 24.033203 C 6.9946914 23.972996 6.7282514 23.854451 6.4648438 23.673828 C 6.2014361 23.500732 5.9308033 23.25135 5.6523438 22.927734 L 5.5625 22.927734 L 5.2460938 23.740234 C 5.3815606 23.913331 5.5358879 24.080237 5.7089844 24.238281 C 5.8896068 24.403852 6.0883886 24.549794 6.3066406 24.677734 C 6.5248927 24.805675 6.7575036 24.907163 7.0058594 24.982422 C 7.2542152 25.057681 7.5184155 25.095703 7.796875 25.095703 C 8.3011126 25.095703 8.7408908 25.000648 9.1171875 24.8125 C 9.5010101 24.624352 9.8222433 24.338901 10.078125 23.955078 C 10.334007 23.578781 10.524403 23.100981 10.652344 22.521484 C 10.780285 21.941987 10.845703 21.265406 10.845703 20.490234 C 10.845703 19.970945 10.807681 19.417101 10.732422 18.830078 C 10.657163 18.243055 10.574686 17.697597 10.484375 17.193359 L 10.392578 17.193359 z M 7.3222656 19.552734 C 7.1491692 19.552734 7.0032274 19.609767 6.8828125 19.722656 C 6.7699235 19.835545 6.7128906 19.981487 6.7128906 20.162109 C 6.7128906 20.342732 6.7699235 20.488673 6.8828125 20.601562 C 7.0032274 20.714452 7.1491692 20.771484 7.3222656 20.771484 C 7.4953621 20.771484 7.6390641 20.714452 7.7519531 20.601562 C 7.8723681 20.488673 7.9316406 20.342732 7.9316406 20.162109 C 7.9316406 19.981487 7.8723681 19.835545 7.7519531 19.722656 C 7.6390641 19.609767 7.4953621 19.552734 7.3222656 19.552734 z M 50.457031 22.871094 C 50.110838 22.871094 49.810569 22.932319 49.554688 23.052734 C 49.306332 23.180675 49.113982 23.345628 48.978516 23.548828 C 48.843049 23.752028 48.775391 23.974014 48.775391 24.214844 C 48.775391 24.402992 48.824038 24.582763 48.921875 24.755859 C 49.027238 24.936482 49.181565 25.084377 49.384766 25.197266 C 49.595492 25.317681 49.851306 25.376953 50.152344 25.376953 L 50.761719 25.376953 L 50.886719 24.666016 L 50.886719 24.587891 L 50.333984 24.587891 C 50.145836 24.587891 49.961872 24.564687 49.78125 24.519531 C 49.649162 24.486509 49.554849 24.363637 49.458984 24.246094 C 49.504484 24.091771 49.556658 23.941393 49.679688 23.841797 C 49.837732 23.721382 50.055525 23.662109 50.333984 23.662109 L 50.761719 23.662109 L 50.910156 22.960938 L 50.910156 22.871094 L 50.457031 22.871094 z "
         d="m 14.033203,13.427734 -1.128906,0.136719 a 0.15373037,0.15373037 0 0 0 -0.136719,0.152344 v 8.443359 a 0.15373037,0.15373037 0 0 0 0.154297,0.154297 h 0.699219 0.339844 1.445312 1.828125 1.828125 1.830078 1.828125 1.828125 1.830078 1.828125 1.828125 1.830078 1.828125 1.828125 1.830078 1.828125 1.830079 1.828125 1.828125 0.722656 c 0.479149,0 0.890502,-0.02394 1.238281,-0.07031 0.3549,-0.04629 0.653522,-0.115706 0.896484,-0.212891 a 0.15373037,0.15373037 0 0 0 0.09766,-0.142578 v -0.08984 a 0.15373037,0.15373037 0 0 0 -0.0039,-0.0332 c -0.02778,-0.12501 -0.04984,-0.277567 -0.06445,-0.457031 -0.0075,-0.18661 -0.01599,-0.377194 -0.02344,-0.570313 v -0.0059 -0.513672 -3.748047 A 0.15373037,0.15373037 0 0 0 47.375,16.316406 h -0.08984 a 0.15373037,0.15373037 0 0 0 -0.02148,0.002 l -0.947266,0.134766 a 0.15373037,0.15373037 0 0 0 -0.132812,0.152344 v 3.748047 c 0,0.239812 0.01535,0.463019 0.04687,0.667968 0.0018,0.0114 0.0041,0.01513 0.0059,0.02539 H 44.892578 43.0625 41.234375 39.40625 37.576172 35.748047 33.919922 32.089844 30.261719 28.433594 26.603516 24.775391 22.947266 21.117187 19.289062 17.460937 15.630859 14.115234 v -5.705078 -0.535156 -0.0059 c 0.0075,-0.209128 0.01405,-0.414567 0.02149,-0.615234 l -0.002,0.0059 c 0.01466,-0.197861 0.03855,-0.360982 0.06641,-0.486328 a 0.15373037,0.15373037 0 0 0 0.0039,-0.0332 v -0.0918 a 0.15373037,0.15373037 0 0 0 -0.171875,-0.152344 z m 36.621094,0 -1.128906,0.136719 a 0.15373037,0.15373037 0 0 0 -0.136719,0.152344 v 8.443359 a 0.15373037,0.15373037 0 0 0 0.154297,0.154297 h 1.039062 a 0.15373037,0.15373037 0 0 0 0.154297,-0.154297 v -6.818359 -0.535156 -0.0059 c 0.0075,-0.209128 0.01405,-0.414567 0.02148,-0.615234 l -0.002,0.0059 c 0.01466,-0.197861 0.03855,-0.360983 0.06641,-0.486328 a 0.15373037,0.15373037 0 0 0 0.0039,-0.0332 v -0.0918 a 0.15373037,0.15373037 0 0 0 -0.171875,-0.152344 z m -3.832031,0.585938 c -0.206862,0 -0.398143,0.07529 -0.544922,0.212891 a 0.15373037,0.15373037 0 0 0 -0.0039,0.002 c -0.141423,0.141423 -0.214843,0.335848 -0.214843,0.548828 0,0.212979 0.07342,0.407404 0.214843,0.548828 a 0.15373037,0.15373037 0 0 0 0.0039,0.002 c 0.146779,0.137606 0.33806,0.212891 0.544922,0.212891 0.205324,0 0.394759,-0.07421 0.535156,-0.212891 0.150277,-0.140885 0.228516,-0.336531 0.228515,-0.550781 0,-0.214252 -0.07824,-0.409897 -0.228515,-0.550781 -0.140397,-0.13868 -0.329832,-0.212891 -0.535156,-0.212891 z m -36.429688,3.02539 a 0.15373037,0.15373037 0 0 0 -0.02148,0.002 l -0.9472659,0.134765 a 0.15373037,0.15373037 0 0 0 -0.1308593,0.177735 c 0.075032,0.442691 0.1389485,0.851865 0.1914062,1.226562 0.052349,0.37392 0.095167,0.737351 0.125,1.087891 0.029701,0.348991 0.042969,0.71193 0.042969,1.091797 0,0.498668 -0.026457,0.949073 -0.078125,1.347656 a 0.15373037,0.15373037 0 0 0 0,0.002 c -0.044315,0.391452 -0.1127544,0.740335 -0.2070313,1.044922 -0.05331,0.172231 -0.1414764,0.325126 -0.2265625,0.49414 -0.1496094,0.095 -0.2923901,0.196597 -0.3945312,0.228516 -0.2287456,0.07148 -0.4405767,0.105469 -0.6328125,0.105469 -0.2810182,0 -0.5517085,-0.03295 -0.8105469,-0.09766 a 0.15373037,0.15373037 0 0 0 -0.00391,-0.002 C 7.0487725,23.827245 6.8021402,23.717897 6.5527344,23.546875 a 0.15373037,0.15373037 0 0 0 -0.00391,-0.002 C 6.3016647,23.382501 6.0413389,23.14401 5.7695312,22.828125 A 0.15373037,0.15373037 0 0 0 5.6523437,22.773437 H 5.5625 a 0.15373037,0.15373037 0 0 0 -0.1425781,0.09766 l -0.3164063,0.8125 A 0.15373037,0.15373037 0 0 0 5.125,23.835937 c 0.1408307,0.179951 0.3011734,0.351922 0.4804687,0.515625 0.1888662,0.173128 0.3959272,0.325847 0.6230469,0.458985 0.2287642,0.134103 0.4728543,0.239703 0.7324219,0.318359 C 7.2244973,25.208773 7.5044232,25.25 7.796875,25.25 c 0.5235552,0 0.9880501,-0.100471 1.3886719,-0.300781 v 0.002 c 0.4085602,-0.200274 0.7502252,-0.506197 1.0195311,-0.910156 0.269967,-0.39701 0.466629,-0.892852 0.597656,-1.486329 C 10.933727,21.961367 11,21.274054 11,20.490234 c 0,-0.526791 -0.03926,-1.087046 -0.115234,-1.679687 -0.07553,-0.58916 -0.159161,-1.137344 -0.25,-1.644531 a 0.15373037,0.15373037 0 0 0 -0.150391,-0.126954 z m -3.0703124,2.359375 c -0.2068609,0 -0.3981425,0.07528 -0.5449219,0.212891 a 0.15373037,0.15373037 0 0 0 -0.00391,0.002 c -0.1414236,0.141424 -0.2148438,0.335849 -0.2148438,0.548828 10e-8,0.212981 0.073421,0.407405 0.2148438,0.548828 a 0.15373037,0.15373037 0 0 0 0.00391,0.002 c 0.1467798,0.137607 0.3380616,0.21289 0.5449219,0.21289 0.2053239,0 0.3947593,-0.07421 0.5351563,-0.21289 0.1502773,-0.140885 0.2285156,-0.336531 0.2285156,-0.550782 0,-0.21425 -0.078238,-0.409896 -0.2285156,-0.550781 C 7.7170253,19.472649 7.5275901,19.398437 7.3222656,19.398437 Z m 43.1347654,3.31836 c -0.364316,0 -0.689112,0.06567 -0.96875,0.197265 a 0.15373037,0.15373037 0 0 0 -0.0039,0.002 c -0.267448,0.137776 -0.481392,0.319743 -0.632813,0.546875 -0.151024,0.226536 -0.230468,0.482334 -0.230468,0.751953 0,0.214644 0.05649,0.423404 0.166015,0.617187 a 0.15373037,0.15373037 0 0 0 0.002,0.002 c 0.119879,0.205507 0.297345,0.373525 0.521485,0.498047 0.237945,0.135375 0.521551,0.199219 0.841797,0.199219 h 0.609375 a 0.15373037,0.15373037 0 0 0 0.152343,-0.126953 l 0.125,-0.710938 a 0.15373037,0.15373037 0 0 0 0.002,-0.02734 v -0.07813 a 0.15373037,0.15373037 0 0 0 -0.154297,-0.154297 h -0.552735 c -0.175509,0 -0.346808,-0.0203 -0.515625,-0.0625 -0.04429,-0.01107 -0.10872,-0.08997 -0.171875,-0.160157 0.03514,-0.09938 0.06836,-0.198209 0.128907,-0.248046 0.123196,-0.09301 0.303257,-0.146485 0.558593,-0.146485 h 0.427735 a 0.15373037,0.15373037 0 0 0 0.15039,-0.123047 l 0.148438,-0.701172 a 0.15373037,0.15373037 0 0 0 0.0039,-0.03125 v -0.08984 a 0.15373037,0.15373037 0 0 0 -0.154297,-0.154297 z"
         transform="matrix(1.2563311,0,0,1.5796752,-3.4128094,-16.260818)" />
      <path
         id="rect3"
         style="opacity:1;fill:#000000;fill-opacity:1;stroke-width:0.27169"
         d="m 58.369578,24.070399 c 0.645777,0 1.291552,0 1.937329,0 0,-0.501223 0,-1.002446 0,-1.503669 -1.589445,-0.06201 -3.17889,-0.124001 -4.768334,-0.186001 0.943668,0.563223 1.887336,1.126447 2.831005,1.68967 z" />
    </g>
  </g>
</svg>
