<?xml version="1.0" encoding="UTF-8"?>
<!-- Created with Inkscape (http://www.inkscape.org/) -->
<svg width="240" height="104" version="1.1" viewBox="0 0 63.5 27.517" xmlns="http://www.w3.org/2000/svg">
 <g fill="#000000">
  <text transform="scale(.26458)" style="shape-inside:url(#rect1);white-space:pre" xml:space="preserve"/>
  <text transform="scale(.26458)" style="shape-inside:url(#rect2);white-space:pre" xml:space="preserve"/>
  <text x="88.26487" y="88.525238" font-size="3.175px" stroke-width=".26458" xml:space="preserve"><tspan x="88.26487" y="88.525238" stroke-width=".26458"/></text>
  <text transform="scale(.26458)" style="shape-inside:url(#rect5);white-space:pre" xml:space="preserve"/>
 </g>
 <g fill="none">
  <text transform="scale(.26458)" style="shape-inside:url(#rect6);white-space:pre" xml:space="preserve"/>
  <text transform="scale(.26458)" style="shape-inside:url(#rect7);white-space:pre" xml:space="preserve"/>
  <text transform="scale(.26458)" style="shape-inside:url(#rect8);white-space:pre" xml:space="preserve"/>
 </g>
 <text transform="scale(.26458)" fill="#000000" style="shape-inside:url(#rect9);white-space:pre" xml:space="preserve"/>
 <text transform="scale(.26458)" fill="#000000" style="shape-inside:url(#rect10);white-space:pre" xml:space="preserve"/>
 <path transform="matrix(1.428 0 0 1.8976 -7.8219 -21.516)" d="m17.42 13.215c-0.12053 0-0.20747 0.03178-0.27148 0.0918-0.06651 0.06235-0.09766 0.12753-0.09766 0.20703 0 0.0795 0.03114 0.14468 0.09766 0.20703 0.06402 0.06002 0.15095 0.0918 0.27148 0.0918h4.8086c0.12053 0 0.20971-0.03205 0.27344-0.0918 0.06622-0.06208 0.0957-0.1269 0.0957-0.20703 0-0.08014-0.02948-0.14495-0.0957-0.20703-0.06373-0.05974-0.15291-0.0918-0.27344-0.0918zm0 0.88086c-0.12053 0-0.20747 0.03178-0.27148 0.0918-0.0662 0.06207-0.09766 0.12949-0.09766 0.20898 0 0.0795 0.03114 0.14468 0.09766 0.20703 0.06402 0.06001 0.15095 0.0918 0.27148 0.0918h1.2812c0.12053 0 0.20747-0.03178 0.27148-0.0918 0.06651-0.06236 0.09766-0.12753 0.09766-0.20703 0-0.0795-0.03145-0.14692-0.09766-0.20898-0.06402-0.06002-0.15095-0.0918-0.27148-0.0918zm10.84 0c-0.12053 0-0.20971 0.03205-0.27344 0.0918-0.06591 0.06179-0.0957 0.12885-0.0957 0.20898 0 0.08014 0.02948 0.14495 0.0957 0.20703 0.06373 0.05974 0.15291 0.0918 0.27344 0.0918h2.1621c0.12053 0 0.20747-0.03178 0.27148-0.0918 0.06651-0.06236 0.09766-0.12753 0.09766-0.20703 0-0.0795-0.03145-0.14692-0.09766-0.20898-0.06402-0.06002-0.15095-0.0918-0.27148-0.0918zm5.8594 0c-0.12053 0-0.20747 0.03178-0.27148 0.0918-0.0662 0.06207-0.09766 0.12949-0.09766 0.20898 0 0.0795 0.03114 0.14468 0.09766 0.20703 0.06402 0.06002 0.15095 0.0918 0.27148 0.0918h1.2812c0.12053 0 0.20971-0.03205 0.27344-0.0918 0.06622-0.06208 0.0957-0.12689 0.0957-0.20703 0-0.08014-0.02979-0.14719-0.0957-0.20898-0.06373-0.05974-0.15291-0.0918-0.27344-0.0918zm-16.699 0.88281c-0.12053 0-0.20747 0.03178-0.27148 0.0918-0.06651 0.06236-0.09766 0.12753-0.09766 0.20703 0 0.0795 0.03145 0.14692 0.09766 0.20898 0.06371 0.05973 0.1505 0.08984 0.27148 0.08984h1.2812c0.12099 0 0.20778-0.03012 0.27148-0.08984 0.0662-0.06207 0.09766-0.12949 0.09766-0.20898 0-0.0795-0.03114-0.14468-0.09766-0.20703-0.06402-0.06002-0.15095-0.0918-0.27148-0.0918zm5.8613 0c-0.12053 0-0.20971 0.03205-0.27344 0.0918-0.06622 0.06208-0.0957 0.12689-0.0957 0.20703 0 0.08014 0.02979 0.14719 0.0957 0.20898 0.06342 0.05945 0.15245 0.08984 0.27344 0.08984h3.0449c0.12099 0 0.20778-0.03012 0.27148-0.08984 0.06591-0.06179 0.0957-0.12885 0.0957-0.20898 0-0.08014-0.02948-0.14495-0.0957-0.20703-0.06402-0.06002-0.15095-0.0918-0.27148-0.0918zm5.8594 0c-0.12053 0-0.20747 0.03178-0.27148 0.0918-0.06651 0.06236-0.09766 0.12753-0.09766 0.20703 0 0.0795 0.03145 0.14692 0.09766 0.20898 0.06371 0.05973 0.1505 0.08984 0.27148 0.08984h1.2812c0.12099 0 0.20778-0.03012 0.27148-0.08984 0.0662-0.06207 0.09766-0.12949 0.09766-0.20898 0-0.0795-0.03114-0.14468-0.09766-0.20703-0.06402-0.06002-0.15095-0.0918-0.27148-0.0918zm9.0762 0c-0.12053 0-0.20971 0.03205-0.27344 0.0918-0.06622 0.06208-0.0957 0.12689-0.0957 0.20703 0 0.08014 0.02979 0.14719 0.0957 0.20898 0.06342 0.05945 0.15245 0.08984 0.27344 0.08984h3.0449c0.12099 0 0.20778-0.03012 0.27148-0.08984 0.0662-0.06207 0.09766-0.12949 0.09766-0.20898 0-0.0795-0.03114-0.14468-0.09766-0.20703-0.06402-0.06002-0.15095-0.0918-0.27148-0.0918zm-20.797 0.88086c-0.12053 0-0.20747 0.03178-0.27148 0.0918-0.0662 0.06207-0.09766 0.12949-0.09766 0.20898 0 0.0795 0.03114 0.14468 0.09766 0.20703 0.06402 0.06002 0.15095 0.0918 0.27148 0.0918h3.0449c0.12053 0 0.20747-0.03178 0.27148-0.0918 0.06651-0.06236 0.09766-0.12753 0.09766-0.20703 0-0.0795-0.03145-0.14692-0.09766-0.20898-0.06402-0.06002-0.15095-0.0918-0.27148-0.0918zm4.9785 0c-0.12053 0-0.20747 0.03178-0.27148 0.0918-0.0662 0.06207-0.09766 0.12949-0.09766 0.20898 0 0.0795 0.03114 0.14468 0.09766 0.20703 0.06402 0.06002 0.15095 0.0918 0.27148 0.0918h1.2812c0.12053 0 0.20747-0.03178 0.27148-0.0918 0.06651-0.06236 0.09766-0.12753 0.09766-0.20703 0-0.0795-0.03145-0.14692-0.09766-0.20898-0.06402-0.06002-0.15095-0.0918-0.27148-0.0918zm3.5273 0c-0.12053 0-0.20747 0.03178-0.27148 0.0918-0.06591 0.06179-0.0957 0.12885-0.0957 0.20898 0 0.08014 0.02948 0.14495 0.0957 0.20703 0.06402 0.06002 0.15095 0.0918 0.27148 0.0918h1.2812c0.12053 0 0.20971-0.03205 0.27344-0.0918 0.06622-0.06208 0.0957-0.12689 0.0957-0.20703 0-0.08014-0.02979-0.14719-0.0957-0.20898-0.06373-0.05974-0.15291-0.0918-0.27344-0.0918zm3.2148 0c-0.12053 0-0.20747 0.03178-0.27148 0.0918-0.0662 0.06207-0.09766 0.12949-0.09766 0.20898 0 0.0795 0.03114 0.14468 0.09766 0.20703 0.06402 0.06002 0.15095 0.0918 0.27148 0.0918h1.2812c0.12053 0 0.20747-0.03178 0.27148-0.0918 0.06651-0.06236 0.09766-0.12753 0.09766-0.20703 0-0.0795-0.03145-0.14692-0.09766-0.20898-0.06402-0.06002-0.15095-0.0918-0.27148-0.0918zm4.0977 0c-0.12053 0-0.20971 0.03205-0.27344 0.0918-0.06591 0.06179-0.0957 0.12885-0.0957 0.20898 0 0.08014 0.02948 0.14495 0.0957 0.20703 0.06373 0.05974 0.1529 0.0918 0.27344 0.0918h2.1621c0.12053 0 0.20971-0.03205 0.27344-0.0918 0.06622-0.06208 0.0957-0.12689 0.0957-0.20703 0-0.08014-0.02979-0.14719-0.0957-0.20898-0.06373-0.05974-0.15291-0.0918-0.27344-0.0918zm4.0957 0c-0.12053 0-0.20747 0.03178-0.27148 0.0918-0.0662 0.06207-0.09766 0.12949-0.09766 0.20898 0 0.0795 0.03114 0.14468 0.09766 0.20703 0.06402 0.06002 0.15095 0.0918 0.27148 0.0918h1.2812c0.12053 0 0.20747-0.03178 0.27148-0.0918 0.06651-0.06236 0.09766-0.12753 0.09766-0.20703 0-0.0795-0.03145-0.14692-0.09766-0.20898-0.06402-0.06002-0.15095-0.0918-0.27148-0.0918zm3.5273 0c-0.12053 0-0.20747 0.03178-0.27148 0.0918-0.06591 0.06179-0.0957 0.12885-0.0957 0.20898 0 0.08014 0.02948 0.14495 0.0957 0.20703 0.06402 0.06002 0.15095 0.0918 0.27148 0.0918h1.2812c0.12053 0 0.20971-0.03205 0.27344-0.0918 0.06622-0.06208 0.0957-0.12689 0.0957-0.20703 0-0.08014-0.02979-0.14719-0.0957-0.20898-0.06373-0.05974-0.15291-0.0918-0.27344-0.0918zm-23.441 0.88281c-0.12053 0-0.20747 0.03178-0.27148 0.0918-0.06651 0.06236-0.09766 0.12753-0.09766 0.20703 0 0.0795 0.03145 0.14692 0.09766 0.20898 0.06402 0.06002 0.15095 0.0918 0.27148 0.0918h1.2812c0.12053 0 0.20747-0.03178 0.27148-0.0918 0.0662-0.06207 0.09766-0.12949 0.09766-0.20898 0-0.0795-0.03114-0.14468-0.09766-0.20703-0.06402-0.06001-0.15095-0.0918-0.27148-0.0918zm4.9785 0c-0.12053 0-0.20747 0.03178-0.27148 0.0918-0.06651 0.06236-0.09766 0.12753-0.09766 0.20703 0 0.0795 0.03145 0.14692 0.09766 0.20898 0.06402 0.06002 0.15095 0.0918 0.27148 0.0918h1.2812c0.12053 0 0.20747-0.03178 0.27148-0.0918 0.0662-0.06207 0.09766-0.12949 0.09766-0.20898 0-0.0795-0.03114-0.14468-0.09766-0.20703-0.06402-0.06002-0.15095-0.0918-0.27148-0.0918zm3.5273 0c-0.12053 0-0.20747 0.03178-0.27148 0.0918-0.06622 0.06208-0.0957 0.12689-0.0957 0.20703 0 0.08014 0.02979 0.14719 0.0957 0.20898 0.06402 0.06002 0.15095 0.0918 0.27148 0.0918h1.2812c0.12053 0 0.20971-0.03205 0.27344-0.0918 0.06591-0.06179 0.0957-0.12885 0.0957-0.20898 0-0.08014-0.02948-0.14495-0.0957-0.20703-0.06373-0.05974-0.15291-0.0918-0.27344-0.0918zm3.2148 0c-0.12053 0-0.20747 0.03178-0.27148 0.0918-0.06651 0.06236-0.09766 0.12753-0.09766 0.20703 0 0.0795 0.03145 0.14692 0.09766 0.20898 0.06402 0.06002 0.15095 0.0918 0.27148 0.0918h1.2812c0.12053 0 0.20747-0.03178 0.27148-0.0918 0.0662-0.06207 0.09766-0.12949 0.09766-0.20898 0-0.0795-0.03114-0.14468-0.09766-0.20703-0.06402-0.06001-0.15095-0.0918-0.27148-0.0918zm4.9785 0c-0.12053 0-0.20747 0.03178-0.27148 0.0918-0.06651 0.06236-0.09766 0.12753-0.09766 0.20703 0 0.0795 0.03145 0.14692 0.09766 0.20898 0.06402 0.06002 0.15095 0.0918 0.27148 0.0918h1.2812c0.12053 0 0.20971-0.03205 0.27344-0.0918 0.06591-0.06179 0.0957-0.12885 0.0957-0.20898 0-0.08014-0.02948-0.14495-0.0957-0.20703-0.06373-0.05974-0.1529-0.0918-0.27344-0.0918zm3.2148 0c-0.12053 0-0.20747 0.03178-0.27148 0.0918-0.06651 0.06236-0.09766 0.12753-0.09766 0.20703 0 0.0795 0.03145 0.14692 0.09766 0.20898 0.06402 0.06002 0.15095 0.0918 0.27148 0.0918h1.2812c0.12053 0 0.20747-0.03178 0.27148-0.0918 0.0662-0.06207 0.09766-0.12949 0.09766-0.20898 0-0.0795-0.03114-0.14468-0.09766-0.20703-0.06402-0.06002-0.15095-0.0918-0.27148-0.0918zm3.5273 0c-0.12053 0-0.20747 0.03178-0.27148 0.0918-0.06622 0.06208-0.0957 0.12689-0.0957 0.20703 0 0.08014 0.02979 0.14719 0.0957 0.20898 0.06402 0.06002 0.15095 0.0918 0.27148 0.0918h1.2812c0.12053 0 0.20971-0.03205 0.27344-0.0918 0.06591-0.06179 0.0957-0.12885 0.0957-0.20898 0-0.08014-0.02948-0.14495-0.0957-0.20703-0.06373-0.05974-0.15291-0.0918-0.27344-0.0918zm-23.441 0.88086c-0.12053 0-0.20747 0.03178-0.27148 0.0918-0.0662 0.06207-0.09766 0.12949-0.09766 0.20898 0 0.0795 0.03114 0.14468 0.09766 0.20703 0.06402 0.06002 0.15095 0.0918 0.27148 0.0918h1.2812c0.12053 0 0.20747-0.03178 0.27148-0.0918 0.06651-0.06235 0.09766-0.12753 0.09766-0.20703 0-0.0795-0.03145-0.14692-0.09766-0.20898-0.06402-0.06002-0.15095-0.0918-0.27148-0.0918zm4.9785 0c-0.12053 0-0.20747 0.03178-0.27148 0.0918-0.0662 0.06207-0.09766 0.12949-0.09766 0.20898 0 0.0795 0.03114 0.14468 0.09766 0.20703 0.06402 0.06002 0.15095 0.0918 0.27148 0.0918h1.2812c0.12053 0 0.20747-0.03178 0.27148-0.0918 0.06651-0.06235 0.09766-0.12753 0.09766-0.20703 0-0.0795-0.03145-0.14692-0.09766-0.20898-0.06402-0.06002-0.15095-0.0918-0.27148-0.0918zm3.5273 0c-0.12053 0-0.20747 0.03178-0.27148 0.0918-0.06591 0.06179-0.0957 0.12885-0.0957 0.20898 0 0.08014 0.02948 0.14495 0.0957 0.20703 0.06402 0.06002 0.15095 0.0918 0.27148 0.0918h1.2812c0.12053 0 0.20971-0.03205 0.27344-0.0918 0.06622-0.06208 0.0957-0.1269 0.0957-0.20703 0-0.08014-0.02979-0.14719-0.0957-0.20898-0.06373-0.05974-0.15291-0.0918-0.27344-0.0918zm3.2148 0c-0.12053 0-0.20747 0.03178-0.27148 0.0918-0.0662 0.06207-0.09766 0.12949-0.09766 0.20898 0 0.0795 0.03114 0.14468 0.09766 0.20703 0.06402 0.06002 0.15095 0.0918 0.27148 0.0918h1.2812c0.12053 0 0.20747-0.03178 0.27148-0.0918 0.06651-0.06235 0.09766-0.12753 0.09766-0.20703 0-0.0795-0.03145-0.14692-0.09766-0.20898-0.06402-0.06002-0.15095-0.0918-0.27148-0.0918zm4.9785 0c-0.12053 0-0.20747 0.03178-0.27148 0.0918-0.0662 0.06207-0.09766 0.12949-0.09766 0.20898 0 0.0795 0.03114 0.14468 0.09766 0.20703 0.06402 0.06002 0.15095 0.0918 0.27148 0.0918h1.2812c0.12053 0 0.20971-0.03205 0.27344-0.0918 0.06622-0.06208 0.0957-0.1269 0.0957-0.20703 0-0.08014-0.02979-0.14719-0.0957-0.20898-0.06373-0.05974-0.15291-0.0918-0.27344-0.0918zm3.2148 0c-0.12053 0-0.20747 0.03178-0.27148 0.0918-0.0662 0.06207-0.09766 0.12949-0.09766 0.20898 0 0.0795 0.03114 0.14468 0.09766 0.20703 0.06402 0.06002 0.15095 0.0918 0.27148 0.0918h1.2812c0.12053 0 0.20747-0.03178 0.27148-0.0918 0.06651-0.06235 0.09766-0.12753 0.09766-0.20703 0-0.0795-0.03145-0.14692-0.09766-0.20898-0.06402-0.06002-0.15095-0.0918-0.27148-0.0918zm3.5273 0c-0.12053 0-0.20747 0.03178-0.27148 0.0918-0.06591 0.06179-0.0957 0.12885-0.0957 0.20898 0 0.08014 0.02948 0.14495 0.0957 0.20703 0.06402 0.06002 0.15095 0.0918 0.27148 0.0918h1.2812c0.12053 0 0.20971-0.03205 0.27344-0.0918 0.06622-0.06208 0.0957-0.1269 0.0957-0.20703 0-0.08014-0.02979-0.14719-0.0957-0.20898-0.06373-0.05974-0.15291-0.0918-0.27344-0.0918zm-23.441 0.88281c-0.12053 0-0.20747 0.03178-0.27148 0.0918-0.06651 0.06236-0.09766 0.12753-0.09766 0.20703 0 0.0795 0.03145 0.14692 0.09766 0.20898 0.06402 0.06002 0.15095 0.0918 0.27148 0.0918h1.2812c0.12053 0 0.20747-0.03178 0.27148-0.0918 0.0662-0.06207 0.09766-0.12949 0.09766-0.20898 0-0.0795-0.03114-0.14468-0.09766-0.20703-0.06402-0.06002-0.15095-0.0918-0.27148-0.0918zm5.8613 0c-0.12053 0-0.20971 0.03205-0.27344 0.0918-0.06622 0.06208-0.0957 0.12689-0.0957 0.20703 0 0.08014 0.02979 0.14719 0.0957 0.20898 0.06373 0.05974 0.15291 0.0918 0.27344 0.0918h3.0449c0.12053 0 0.20747-0.03178 0.27148-0.0918 0.06591-0.06179 0.0957-0.12885 0.0957-0.20898 0-0.08014-0.02948-0.14495-0.0957-0.20703-0.06402-0.06002-0.15095-0.0918-0.27148-0.0918zm4.9785 0c-0.12053 0-0.20971 0.03205-0.27344 0.0918-0.06622 0.06208-0.0957 0.1269-0.0957 0.20703 0 0.08014 0.02979 0.14719 0.0957 0.20898 0.06373 0.05974 0.15291 0.0918 0.27344 0.0918h3.0449c0.12053 0 0.20747-0.03178 0.27148-0.0918 0.06591-0.06179 0.0957-0.12885 0.0957-0.20898 0-0.08014-0.02948-0.14495-0.0957-0.20703-0.06402-0.06002-0.15095-0.0918-0.27148-0.0918zm4.9785 0c-0.12053 0-0.20971 0.03205-0.27344 0.0918-0.06622 0.06208-0.0957 0.12689-0.0957 0.20703 0 0.08014 0.02979 0.14719 0.0957 0.20898 0.06373 0.05974 0.15291 0.0918 0.27344 0.0918h3.0449c0.12053 0 0.20747-0.03178 0.27148-0.0918 0.0662-0.06207 0.09766-0.12949 0.09766-0.20898 0-0.0795-0.03114-0.14468-0.09766-0.20703-0.06402-0.06002-0.15095-0.0918-0.27148-0.0918zm4.9785 0c-0.12053 0-0.20971 0.03205-0.27344 0.0918-0.06622 0.06208-0.0957 0.1269-0.0957 0.20703 0 0.08014 0.02979 0.14719 0.0957 0.20898 0.06373 0.05974 0.15291 0.0918 0.27344 0.0918h3.0449c0.12053 0 0.20747-0.03178 0.27148-0.0918 0.0662-0.06207 0.09766-0.12949 0.09766-0.20898 0-0.0795-0.03114-0.14468-0.09766-0.20703-0.06402-0.06002-0.15095-0.0918-0.27148-0.0918z" fill="#4d4d4d" stroke-width=".26458"/>
 <g>
  <path transform="matrix(1.2563 0 0 1.5797 -3.4128 -16.261)" d="m14.033 13.428-1.1289 0.13672a0.15373 0.15373 0 0 0-0.13672 0.15234v8.4434a0.15373 0.15373 0 0 0 0.1543 0.1543h32.467c0.47915 0 0.8905-0.02394 1.2383-0.07031 0.3549-0.04629 0.65352-0.11571 0.89648-0.21289a0.15373 0.15373 0 0 0 0.09766-0.14258v-0.08984a0.15373 0.15373 0 0 0-0.0039-0.0332c-0.02778-0.12501-0.04984-0.27757-0.06445-0.45703-0.0075-0.18661-0.01599-0.37719-0.02344-0.57031v-4.2676a0.15373 0.15373 0 0 0-0.15431-0.15426h-0.08984a0.15373 0.15373 0 0 0-0.02148 2e-3l-0.94727 0.13477a0.15373 0.15373 0 0 0-0.13281 0.15234v3.748c0 0.23981 0.01535 0.46302 0.04687 0.66797 0.0018 0.0114 0.0041 0.01513 0.0059 0.02539h-32.121v-6.2461c0.0075-0.20913 0.01405-0.41457 0.02149-0.61523l-2e-3 0.0059c0.01466-0.19786 0.03855-0.36098 0.06641-0.48633a0.15373 0.15373 0 0 0 0.0039-0.0332v-0.0918a0.15373 0.15373 0 0 0-0.17188-0.15234zm36.621 0-1.1289 0.13672a0.15373 0.15373 0 0 0-0.13672 0.15234v8.4434a0.15373 0.15373 0 0 0 0.1543 0.1543h1.0391a0.15373 0.15373 0 0 0 0.1543-0.1543v-7.3594c0.0075-0.20913 0.01405-0.41457 0.02148-0.61523l-2e-3 0.0059c0.01466-0.19786 0.03855-0.36098 0.06641-0.48633a0.15373 0.15373 0 0 0 0.0039-0.0332v-0.0918a0.15373 0.15373 0 0 0-0.17188-0.15234zm-3.832 0.58594c-0.20686 0-0.39814 0.07529-0.54492 0.21289a0.15373 0.15373 0 0 0-0.0039 2e-3c-0.14142 0.14142-0.21484 0.33585-0.21484 0.54883 0 0.21298 0.07342 0.4074 0.21484 0.54883a0.15373 0.15373 0 0 0 0.0039 2e-3c0.14678 0.13761 0.33806 0.21289 0.54492 0.21289 0.20532 0 0.39476-0.07421 0.53516-0.21289 0.15028-0.14088 0.22852-0.33653 0.22852-0.55078 0-0.21425-0.07824-0.4099-0.22852-0.55078-0.1404-0.13868-0.32983-0.21289-0.53516-0.21289zm-36.43 3.0254a0.15373 0.15373 0 0 0-0.02148 2e-3l-0.94727 0.13476a0.15373 0.15373 0 0 0-0.13086 0.17774c0.075032 0.44269 0.13895 0.85186 0.19141 1.2266 0.052349 0.37392 0.095167 0.73735 0.125 1.0879 0.029701 0.34899 0.042969 0.71193 0.042969 1.0918 0 0.49867-0.026457 0.94907-0.078125 1.3477a0.15373 0.15373 0 0 0 0 2e-3c-0.044315 0.39145-0.11275 0.74034-0.20703 1.0449-0.05331 0.17223-0.14148 0.32513-0.22656 0.49414-0.14961 0.095-0.29239 0.1966-0.39453 0.22852-0.22875 0.07148-0.44058 0.10547-0.63281 0.10547-0.28102 0-0.55171-0.03295-0.81055-0.09766a0.15373 0.15373 0 0 0-0.00391-2e-3c-0.25006-0.05561-0.49669-0.16496-0.74609-0.33598a0.15373 0.15373 0 0 0-0.00391-2e-3c-0.24716-0.16237-0.50749-0.40086-0.77929-0.71675a0.15373 0.15373 0 0 0-0.11719-0.054688h-0.089844a0.15373 0.15373 0 0 0-0.14258 0.09766l-0.31641 0.8125a0.15373 0.15373 0 0 0 0.021484 0.15234c0.14083 0.17995 0.30117 0.35192 0.48047 0.51562 0.18887 0.17313 0.39593 0.32585 0.62305 0.45898 0.22876 0.1341 0.47285 0.2397 0.73242 0.31836 0.26356 0.079867 0.54349 0.12109 0.83594 0.12109 0.52356 0 0.98805-0.10047 1.3887-0.30078v2e-3c0.40856-0.20027 0.75023-0.5062 1.0195-0.91016 0.26997-0.39701 0.46663-0.89285 0.59766-1.4863 0.13099-0.59337 0.19727-1.2807 0.19727-2.0645 0-0.52679-0.03926-1.087-0.11523-1.6797-0.07553-0.58916-0.15916-1.1373-0.25-1.6445a0.15373 0.15373 0 0 0-0.15039-0.12695zm-3.0703 2.3594c-0.20686 0-0.39814 0.07528-0.54492 0.21289a0.15373 0.15373 0 0 0-0.00391 2e-3c-0.14142 0.14142-0.21484 0.33585-0.21484 0.54883 1e-7 0.21298 0.073421 0.4074 0.21484 0.54883a0.15373 0.15373 0 0 0 0.00391 2e-3c0.14678 0.13761 0.33806 0.21289 0.54492 0.21289 0.20532 0 0.39476-0.07421 0.53516-0.21289 0.15028-0.14088 0.22852-0.33653 0.22852-0.55078 0-0.21425-0.078238-0.4099-0.22852-0.55078-0.1404-0.13877-0.32983-0.21298-0.53516-0.21298zm43.135 3.3184c-0.36432 0-0.68911 0.06567-0.96875 0.19726a0.15373 0.15373 0 0 0-0.0039 2e-3c-0.26745 0.13778-0.48139 0.31974-0.63281 0.54688-0.15102 0.22654-0.23047 0.48233-0.23047 0.75195 0 0.21464 0.05649 0.4234 0.16602 0.61719a0.15373 0.15373 0 0 0 2e-3 2e-3c0.11988 0.20551 0.29734 0.37352 0.52148 0.49805 0.23794 0.13538 0.52155 0.19922 0.8418 0.19922h0.60938a0.15373 0.15373 0 0 0 0.15234-0.12695l0.125-0.71094a0.15373 0.15373 0 0 0 2e-3 -0.02734v-0.07813a0.15373 0.15373 0 0 0-0.1543-0.1543h-0.55274c-0.17551 0-0.34681-0.0203-0.51562-0.0625-0.04429-0.01107-0.10872-0.08997-0.17188-0.16016 0.03514-0.09938 0.06836-0.19821 0.12891-0.24805 0.1232-0.09301 0.30326-0.14648 0.55859-0.14648h0.42774a0.15373 0.15373 0 0 0 0.15039-0.12305l0.14844-0.70117a0.15373 0.15373 0 0 0 0.0039-0.03125v-0.08984a0.15373 0.15373 0 0 0-0.1543-0.1543z" stroke-width=".26458"/>
  <path d="m58.37 24.07h1.9373v-1.5037c-1.5894-0.06201-3.1789-0.124-4.7683-0.186 0.94367 0.56322 1.8873 1.1264 2.831 1.6897z" stroke-width=".27169"/>
 </g>
</svg>
