<?xml version="1.0" encoding="UTF-8" standalone="no"?>
<!-- Created with Inkscape (http://www.inkscape.org/) -->

<svg
   width="256mm"
   height="256mm"
   viewBox="0 0 256 256"
   version="1.1"
   id="svg1"
   sodipodi:docname="favicon.svg"
   inkscape:version="1.3.2 (091e20e, 2023-11-25)"
   xmlns:inkscape="http://www.inkscape.org/namespaces/inkscape"
   xmlns:sodipodi="http://sodipodi.sourceforge.net/DTD/sodipodi-0.dtd"
   xmlns="http://www.w3.org/2000/svg"
   xmlns:svg="http://www.w3.org/2000/svg">
  <sodipodi:namedview
     id="namedview1"
     pagecolor="#ffffff"
     bordercolor="#000000"
     borderopacity="0.25"
     inkscape:showpageshadow="2"
     inkscape:pageopacity="0.0"
     inkscape:pagecheckerboard="0"
     inkscape:deskcolor="#d1d1d1"
     inkscape:document-units="px"
     showgrid="true"
     inkscape:zoom="0.8517289"
     inkscape:cx="538.31683"
     inkscape:cy="414.45113"
     inkscape:window-width="1512"
     inkscape:window-height="945"
     inkscape:window-x="0"
     inkscape:window-y="37"
     inkscape:window-maximized="0"
     inkscape:current-layer="layer1">
    <inkscape:grid
       id="grid1"
       units="mm"
       originx="0"
       originy="0"
       spacingx="0.99999997"
       spacingy="0.99999997"
       empcolor="#0099e5"
       empopacity="0.30196078"
       color="#0099e5"
       opacity="0.14901961"
       empspacing="5"
       dotted="false"
       gridanglex="30"
       gridanglez="30"
       visible="true" />
  </sodipodi:namedview>
  <defs
     id="defs1" />
  <g
     inkscape:label="Layer 1"
     inkscape:groupmode="layer"
     id="layer1">
    <ellipse
       style="fill:#000000;stroke-width:0.194389"
       id="path2"
       ry="24.919168"
       rx="21.181293"
       cy="97.112099"
       cx="139.75284" />
    <path
       id="path4"
       style="fill:#000000;stroke-width:0.261993"
       inkscape:transform-center-x="-2.9170893"
       inkscape:transform-center-y="-2.5312391"
       d="M 110.42383 64.548828 C 105.27887 75.782242 100.46133 87.238532 97.403219 99.238543 C 96.113036 104.67035 95.462887 110.34869 96.366113 115.89608 C 97.408881 122.37314 100.21096 128.45156 103.81464 133.89059 C 109.22064 142.29634 114.77629 150.61261 119.81445 159.24805 C 120.62696 161.22419 120.3253 163.45909 119.67578 165.43555 C 118.87904 167.71848 117.70823 169.84331 116.73665 172.05214 C 110.31901 185.75819 103.39557 199.21841 96.750636 212.81403 C 95.538835 215.26469 94.327035 217.71535 93.115234 220.16602 C 93.311401 220.69555 94.163349 220.687 94.392578 220.18945 C 112.05924 205.95247 129.72591 191.71549 147.39258 177.47852 C 149.06801 176.69603 150.94766 176.35648 152.79102 176.50391 C 156.187 180.26977 158.41131 184.87096 161.01248 189.1786 C 167.55129 200.49732 174.0901 211.81604 180.62891 223.13477 C 180.91658 218.88921 179.89933 214.71469 179.49268 210.5124 C 176.47624 187.71855 173.4598 164.92471 170.44336 142.13086 C 172.04331 141.52092 173.76119 141.99339 175.38156 142.24896 C 188.76742 144.6758 201.94793 148.13112 215.37305 150.35352 C 215.70419 150.33564 215.62166 149.74112 215.30273 149.79883 C 207.80753 146.72789 200.88631 142.47152 193.60893 138.94844 C 187.31803 136.19513 180.70022 134.10119 174.80295 130.51699 C 171.05527 128.184 168.06689 124.8896 164.79497 121.97351 C 162.07444 119.80574 158.90787 118.26331 156.26562 115.99023 C 154.98698 114.04347 154.65734 111.68801 154.19873 109.45316 C 153.8314 107.35107 153.55256 105.23261 153.09766 103.14648 C 152.39826 102.10279 151.05866 101.78873 149.87833 101.72461 C 148.11791 101.72693 146.57423 102.68519 145.00704 103.36264 C 139.90119 105.77328 135.48429 109.44538 131.71861 113.61702 C 129.21954 116.28888 126.80664 119.1177 123.74729 121.17302 C 122.36766 121.82302 120.76478 121.8301 119.29297 121.53906 C 117.40246 121.12158 115.70091 120.01199 114.48169 118.51823 C 111.36678 115.47455 108.39275 112.14464 106.5779 108.14057 C 104.95699 104.12782 104.76312 99.692805 105.193 95.431278 C 106.38329 85.046431 108.9314 74.882616 110.4375 64.546875 L 110.43164 64.542969 L 110.42383 64.548828 z " />
  </g>
</svg>
