<?xml version="1.0" encoding="UTF-8" standalone="no"?>
<!-- Created with Inkscape (http://www.inkscape.org/) -->

<svg
   width="256mm"
   height="256mm"
   viewBox="0 0 256 256"
   version="1.1"
   id="svg1"
   sodipodi:docname="favicon.svg"
   inkscape:version="1.3.2 (091e20e, 2023-11-25)"
   xmlns:inkscape="http://www.inkscape.org/namespaces/inkscape"
   xmlns:sodipodi="http://sodipodi.sourceforge.net/DTD/sodipodi-0.dtd"
   xmlns="http://www.w3.org/2000/svg"
   xmlns:svg="http://www.w3.org/2000/svg">
  <sodipodi:namedview
     id="namedview1"
     pagecolor="#ffffff"
     bordercolor="#000000"
     borderopacity="0.25"
     inkscape:showpageshadow="2"
     inkscape:pageopacity="0.0"
     inkscape:pagecheckerboard="0"
     inkscape:deskcolor="#d1d1d1"
     inkscape:document-units="px"
     showgrid="true"
     inkscape:zoom="0.55541056"
     inkscape:cx="454.61865"
     inkscape:cy="534.73956"
     inkscape:window-width="1512"
     inkscape:window-height="945"
     inkscape:window-x="0"
     inkscape:window-y="37"
     inkscape:window-maximized="0"
     inkscape:current-layer="layer1">
    <inkscape:grid
       id="grid1"
       units="mm"
       originx="0"
       originy="0"
       spacingx="0.99999997"
       spacingy="0.99999997"
       empcolor="#0099e5"
       empopacity="0.30196078"
       color="#0099e5"
       opacity="0.14901961"
       empspacing="5"
       dotted="false"
       gridanglex="30"
       gridanglez="30"
       visible="true" />
  </sodipodi:namedview>
  <defs
     id="defs1" />
  <g
     inkscape:label="Layer 1"
     inkscape:groupmode="layer"
     id="layer1">
    <g
       id="g11"
       transform="translate(-15.243978,-14.767603)">
      <ellipse
         style="fill:#000000;stroke-width:0.194389"
         id="path2"
         ry="24.919168"
         rx="21.181293"
         cy="97.112099"
         cx="139.75284" />
      <path
         id="path4"
         style="fill:#000000;stroke-width:0.261993"
         inkscape:transform-center-x="-2.9170893"
         inkscape:transform-center-y="-2.5312391"
         d="m 110.42383,64.548828 c -0.57995,1.286698 -1.16289,2.572054 -1.74093,3.859607 -0.4607,1.037533 -0.92681,2.072671 -1.37916,3.113888 -0.36304,0.833728 -0.71862,1.670691 -1.07984,2.505211 -0.48552,1.141993 -0.96438,2.28684 -1.4337,3.435591 -0.26547,0.648738 -0.52862,1.298449 -0.78907,1.949217 -0.4444,1.124953 -0.89276,2.248432 -1.31831,3.380706 -0.3084,0.814901 -0.61158,1.63178 -0.90533,2.452087 -0.22696,0.631488 -0.4584,1.261391 -0.6825,1.893897 -0.21646,0.62191 -0.43286,1.243844 -0.64081,1.868668 -0.3494,1.031685 -0.68642,2.06752 -1.013115,3.10661 -0.235821,0.75198 -0.462683,1.50673 -0.687443,2.262082 -0.1266,0.424251 -0.256385,0.847579 -0.3724,1.274895 -0.249282,0.886998 -0.494049,1.775285 -0.733156,2.665076 -0.12125,0.475947 -0.251425,0.949838 -0.353625,1.430388 -0.112904,0.505069 -0.223848,1.010579 -0.326817,1.517779 -0.106042,0.50632 -0.210334,1.01317 -0.292909,1.52393 -0.08064,0.46856 -0.157327,0.93784 -0.228857,1.40786 -0.04827,0.32974 -0.09848,0.65923 -0.135205,0.99052 -0.0684,0.56162 -0.134876,1.1236 -0.187827,1.6869 -0.03989,0.45183 -0.07295,0.90417 -0.103295,1.35673 -0.02234,0.51603 -0.04537,1.03203 -0.05774,1.54842 -0.01472,0.33395 -0.0057,0.66822 -0.0067,1.00236 0.0087,0.57432 0.01747,1.14886 0.05178,1.72233 0.01704,0.36406 0.05415,0.72677 0.08104,1.09017 0.04211,0.41075 0.07598,0.82242 0.132231,1.23158 0.04098,0.35908 0.100183,0.71565 0.152925,1.07311 0.128519,0.73052 0.256957,1.46148 0.421848,2.18486 0.09219,0.39204 0.187059,0.78352 0.283854,1.17446 0.169592,0.67405 0.364268,1.34163 0.574065,2.0042 0.172818,0.53602 0.343699,1.07281 0.537407,1.60175 0.267826,0.74959 0.557599,1.49125 0.86477,2.22556 0.237891,0.57188 0.493565,1.13614 0.75297,1.69851 0.298819,0.62995 0.604129,1.25696 0.929359,1.87377 0.19955,0.38426 0.40184,0.76715 0.60857,1.14757 0.29173,0.5301 0.59916,1.05132 0.90359,1.57416 0.30027,0.50205 0.60036,1.00439 0.91932,1.4949 0.91503,1.42428 1.83103,2.84795 2.75172,4.26858 1.66557,2.57687 3.33134,5.15361 4.99563,7.73129 0.71485,1.1176 1.43228,2.23356 2.14552,3.35218 0.77479,1.23209 1.55147,2.463 2.32509,3.69583 0.74074,1.19911 1.4814,2.39831 2.20929,3.60528 0.52288,0.86434 1.04124,1.73141 1.55512,2.60113 0.18522,0.31584 0.37665,0.62812 0.55784,0.94628 0.12771,0.2241 0.21678,0.46801 0.2926,0.71384 0.0822,0.2626 0.13492,0.53292 0.18774,0.8026 0.0486,0.29165 0.0903,0.58524 0.0965,0.8813 0.0155,0.268 0.0162,0.53667 6.5e-4,0.80469 -0.008,0.29353 -0.0366,0.58616 -0.0821,0.87624 -0.0411,0.28763 -0.0878,0.57478 -0.15118,0.85843 -0.0578,0.27735 -0.12805,0.55213 -0.20597,0.82447 -0.1009,0.36769 -0.22781,0.7275 -0.3531,1.08741 -0.18547,0.47904 -0.37876,0.95507 -0.58547,1.42537 -0.13483,0.31888 -0.27885,0.63366 -0.4244,0.94776 -0.3933,0.8503 -0.79318,1.69755 -1.18945,2.54647 -0.89363,1.90528 -1.78927,3.80965 -2.69642,5.70855 -0.82204,1.7098 -1.64088,3.42114 -2.46917,5.12793 -1.03442,2.12587 -2.07913,4.24672 -3.11935,6.36976 -0.57983,1.18004 -1.16723,2.35635 -1.75023,3.53482 -2.37026,4.78164 -4.74658,9.56026 -7.11871,14.34096 -2.341899,4.74556 -4.683802,9.49111 -7.025706,14.23667 0.08552,0.1996 0.28087,0.34288 0.492916,0.37966 0.245589,0.0517 0.508736,-0.0387 0.686772,-0.2117 0.156517,-0.20441 0.362014,-0.36097 0.563678,-0.51776 1.094226,-0.87958 2.185634,-1.76269 3.278781,-2.64362 4.893039,-3.94887 9.790489,-7.89229 14.686119,-11.83795 11.52303,-9.28538 23.04605,-18.57075 34.56908,-27.85613 0.36114,-0.14975 0.71897,-0.30948 1.0926,-0.42642 0.28763,-0.0971 0.57932,-0.18231 0.87413,-0.25475 0.29099,-0.0733 0.58445,-0.13934 0.88157,-0.18245 0.28504,-0.0416 0.57163,-0.0718 0.85811,-0.10118 0.26835,-0.0225 0.5379,-0.0403 0.80726,-0.0293 0.23698,0.0185 0.46284,0.0967 0.69141,0.15624 0.25549,0.17147 0.51853,0.33245 0.76172,0.52149 0.32145,0.3829 0.635,0.77239 0.93913,1.16921 0.18201,0.23384 0.35636,0.47357 0.53218,0.71206 0.3482,0.4864 0.68665,0.97969 1.01818,1.4776 0.41632,0.61033 0.80389,1.23949 1.19178,1.86807 0.57503,0.94446 1.13254,1.89941 1.68545,2.85695 1.54822,2.67276 3.09868,5.34422 4.64541,8.01784 5.75246,9.95698 11.50493,19.91395 17.2574,29.87093 0.0137,-0.38933 0.0334,-0.77851 0.0351,-1.16815 0.0113,-0.48499 0.005,-0.97019 -0.0148,-1.45488 -0.0131,-0.42293 -0.0453,-0.84497 -0.075,-1.26698 -0.0391,-0.51831 -0.0929,-1.03534 -0.15483,-1.55139 -0.0972,-0.85357 -0.21465,-1.70464 -0.32939,-2.55598 -0.13477,-0.97059 -0.26767,-1.94146 -0.39462,-2.9131 -0.0976,-0.80138 -0.19325,-1.60299 -0.29952,-2.40327 -0.23464,-1.80768 -0.47615,-3.61447 -0.71364,-5.42179 -0.90512,-6.85962 -1.81474,-13.71865 -2.72185,-20.578 -1.83899,-13.89679 -3.67798,-27.79358 -5.51697,-41.69037 0.26266,-0.0816 0.52508,-0.16668 0.79687,-0.21289 0.29964,-0.0493 0.60241,-0.0808 0.90634,-0.0793 0.30309,0.004 0.60579,0.0245 0.90812,0.0461 0.48845,0.0617 0.97545,0.13441 1.46058,0.21838 0.89358,0.14857 1.78285,0.32156 2.67367,0.48559 1.42289,0.26777 2.84282,0.55085 4.2625,0.83505 0.72974,0.14647 1.46057,0.28765 2.18823,0.4443 1.575,0.332 3.15058,0.66133 4.72522,0.99502 3.34905,0.72287 6.69773,1.44749 10.04702,2.16927 1.40553,0.29863 2.81089,0.5981 4.21774,0.89047 1.26457,0.26748 2.53213,0.52051 3.79845,0.7795 1.46281,0.29096 2.92747,0.57269 4.39363,0.84623 1.08808,0.19987 2.17747,0.39253 3.26734,0.5824 0.42799,0.0742 0.85598,0.14836 1.28398,0.22254 0.27981,-0.0359 0.27666,-0.52279 -0.004,-0.55441 -0.23317,-0.0344 -0.43425,-0.16926 -0.65276,-0.24946 -0.61569,-0.26592 -1.23282,-0.5286 -1.84761,-0.79654 -0.73683,-0.34088 -1.47367,-0.6818 -2.20718,-1.02977 -0.93214,-0.45357 -1.86688,-0.90202 -2.78981,-1.37422 -0.82879,-0.42155 -1.65378,-0.85058 -2.47803,-1.28094 -2.03404,-1.06812 -4.06623,-2.13978 -6.0962,-3.21563 -0.63652,-0.33229 -1.27087,-0.66877 -1.90877,-0.99838 -0.9287,-0.47113 -1.85595,-0.94517 -2.78556,-1.41449 -0.32263,-0.15893 -0.64527,-0.31786 -0.9679,-0.47679 -1.02353,-0.43588 -2.04847,-0.86851 -3.07869,-1.28837 -1.2683,-0.51899 -2.53991,-1.02987 -3.80974,-1.54509 -0.8056,-0.32722 -1.61276,-0.65062 -2.41734,-0.98027 -0.81852,-0.34042 -1.63498,-0.68583 -2.44931,-1.03612 -0.63377,-0.28473 -1.26951,-0.56515 -1.89831,-0.86077 -0.3579,-0.16763 -0.71543,-0.33625 -1.07028,-0.51026 -0.4596,-0.22616 -0.91608,-0.4585 -1.37127,-0.69339 -0.3901,-0.20733 -0.78212,-0.41122 -1.16581,-0.63032 -0.45418,-0.25027 -0.90156,-0.51248 -1.35058,-0.77182 -0.27733,-0.17609 -0.55751,-0.3478 -0.82812,-0.53421 -0.40252,-0.26899 -0.80088,-0.54449 -1.19064,-0.8317 -0.42519,-0.31339 -0.83458,-0.64742 -1.24783,-0.97621 -0.51257,-0.41066 -1.00997,-0.83995 -1.49884,-1.27847 -0.61535,-0.55028 -1.22601,-1.10584 -1.82744,-1.67134 -1.04829,-0.9777 -2.09496,-1.95718 -3.14427,-2.93376 -0.237,-0.21311 -0.471,-0.43016 -0.72479,-0.6235 -0.266,-0.20674 -0.54188,-0.40045 -0.81206,-0.60168 -0.55414,-0.40802 -1.1299,-0.78539 -1.70205,-1.16738 -1.04016,-0.67995 -2.08196,-1.35747 -3.11662,-2.04578 -0.34709,-0.23567 -0.69207,-0.47453 -1.03199,-0.72044 -0.32918,-0.24629 -0.65936,-0.49128 -0.98143,-0.74687 -0.20806,-0.16859 -0.43385,-0.31768 -0.6176,-0.51419 -0.1664,-0.18007 -0.2602,-0.41121 -0.3876,-0.61786 -0.15953,-0.27818 -0.28066,-0.57559 -0.41216,-0.86747 -0.11313,-0.26911 -0.21026,-0.54461 -0.30634,-0.82016 -0.10305,-0.29952 -0.19256,-0.60376 -0.27165,-0.91044 -0.1446,-0.57236 -0.27629,-1.14796 -0.39796,-1.72559 -0.12914,-0.64013 -0.25088,-1.28171 -0.37561,-1.92271 -0.21349,-1.27948 -0.42476,-2.55935 -0.63963,-3.83858 -0.13011,-0.71853 -0.26882,-1.43546 -0.41115,-2.15166 -0.15684,-0.2076 -0.33223,-0.40197 -0.53101,-0.57029 -0.20832,-0.15416 -0.42704,-0.29662 -0.66431,-0.40236 -0.29988,-0.1291 -0.60995,-0.23736 -0.9309,-0.3001 -0.32871,-0.0724 -0.66414,-0.10603 -0.99878,-0.1374 -0.28941,-0.008 -0.57926,0.013 -0.86551,0.0556 -0.26227,0.0498 -0.52513,0.0999 -0.7822,0.17261 -0.27064,0.0795 -0.53674,0.17448 -0.79995,0.27576 -0.26557,0.10007 -0.52607,0.21288 -0.78485,0.32922 -0.52438,0.23789 -1.04676,0.48009 -1.56733,0.72619 -0.42549,0.19805 -0.84903,0.40056 -1.26434,0.61931 -0.46461,0.23965 -0.91972,0.49703 -1.37617,0.75171 -0.59551,0.33745 -1.17402,0.7037 -1.75106,1.07155 -0.39429,0.2602 -0.78861,0.52057 -1.17137,0.79763 -0.42381,0.29929 -0.84608,0.60098 -1.25549,0.91985 -0.25645,0.19654 -0.51382,0.39193 -0.76263,0.59817 -0.44074,0.35397 -0.87671,0.71391 -1.30286,1.08538 -0.28307,0.24297 -0.5635,0.4891 -0.8419,0.73737 -0.4941,0.45874 -0.99004,0.91577 -1.46657,1.39289 -0.46447,0.46528 -0.93369,0.9261 -1.38019,1.40886 -0.7732,0.82141 -1.54229,1.64668 -2.30883,2.47432 -0.6059,0.65034 -1.21283,1.29982 -1.83118,1.93838 -0.45805,0.46837 -0.92518,0.92783 -1.39803,1.38122 -0.27702,0.25818 -0.55447,0.51588 -0.8392,0.76559 -0.2604,0.23194 -0.52495,0.45946 -0.79614,0.67873 -0.36538,0.28736 -0.73021,0.57572 -1.10501,0.85074 -0.2318,0.16546 -0.46025,0.34113 -0.72008,0.46094 -0.2733,0.12649 -0.56084,0.22087 -0.85345,0.29133 -0.27415,0.0661 -0.55152,0.11997 -0.8323,0.14829 -0.27763,0.0305 -0.55653,0.0528 -0.83605,0.0469 -0.28094,0.004 -0.56104,-0.0185 -0.84065,-0.043 -0.28128,-0.0218 -0.55866,-0.075 -0.83698,-0.11912 -0.27748,-0.0509 -0.5471,-0.1349 -0.81836,-0.21093 -0.28453,-0.10221 -0.56708,-0.20965 -0.84765,-0.32227 -0.26955,-0.11649 -0.52749,-0.25732 -0.78198,-0.40334 -0.38689,-0.22181 -0.75476,-0.4761 -1.10423,-0.75295 -0.22743,-0.18967 -0.455,-0.38031 -0.66445,-0.59008 -0.35267,-0.35842 -0.69281,-0.72896 -1.04273,-1.09002 -0.37684,-0.38291 -0.7563,-0.76331 -1.12992,-1.14936 -0.4365,-0.45743 -0.87781,-0.91061 -1.29576,-1.38527 -0.41897,-0.46746 -0.8293,-0.94256 -1.23244,-1.42373 -0.32477,-0.38446 -0.62588,-0.78802 -0.93404,-1.18572 -0.29407,-0.39251 -0.58511,-0.78746 -0.86016,-1.19363 -0.30437,-0.44672 -0.59447,-0.90305 -0.87549,-1.36479 -0.15572,-0.25146 -0.29503,-0.51268 -0.4393,-0.77079 -0.18822,-0.3477 -0.38086,-0.69341 -0.5465,-1.05269 -0.12962,-0.27802 -0.26173,-0.55538 -0.37366,-0.84112 -0.20174,-0.52871 -0.38299,-1.06546 -0.53084,-1.61184 -0.13878,-0.49714 -0.27954,-0.99446 -0.37963,-1.50116 -0.11295,-0.53716 -0.20572,-1.07844 -0.28098,-1.62214 -0.0599,-0.40375 -0.1057,-0.80946 -0.13823,-1.21633 -0.038,-0.38766 -0.0562,-0.77684 -0.083,-1.16535 -0.0201,-0.41125 -0.0377,-0.822767 -0.0349,-1.234595 -0.004,-0.341349 -9.3e-4,-0.68266 0.006,-1.023949 0.004,-0.389856 0.015,-0.779727 0.0415,-1.168764 0.0229,-0.411513 0.0554,-0.822349 0.0914,-1.232902 0.0239,-0.295278 0.0492,-0.590422 0.0855,-0.88448 0.0702,-0.61927 0.15291,-1.237056 0.22837,-1.855702 0.11608,-0.883443 0.24461,-1.765168 0.37716,-2.646274 0.0952,-0.643979 0.19914,-1.286641 0.30074,-1.929632 0.13984,-0.844904 0.27771,-1.690141 0.42617,-2.533587 0.15109,-0.885733 0.31312,-1.76955 0.47271,-2.653778 0.34907,-1.918767 0.71241,-3.834896 1.07197,-5.751717 0.31981,-1.701915 0.64163,-3.403461 0.96019,-5.105607 0.24519,-1.355404 0.48646,-2.711541 0.71765,-4.069409 0.14946,-0.888824 0.29217,-1.778772 0.43294,-2.669006 0.0665,-0.426554 0.13297,-0.853108 0.19945,-1.279662 0.004,-0.03906 0.008,-0.07813 0.0117,-0.117187 z" />
    </g>
  </g>
</svg>
